<?xml version="1.0" encoding="utf-8" standalone="no"?>
<!DOCTYPE svg PUBLIC "-//W3C//DTD SVG 1.1//EN"
  "http://www.w3.org/Graphics/SVG/1.1/DTD/svg11.dtd">
<svg xmlns:xlink="http://www.w3.org/1999/xlink" width="576pt" height="432pt" viewBox="0 0 576 432" xmlns="http://www.w3.org/2000/svg" version="1.1">
 <metadata>
  <rdf:RDF xmlns:dc="http://purl.org/dc/elements/1.1/" xmlns:cc="http://creativecommons.org/ns#" xmlns:rdf="http://www.w3.org/1999/02/22-rdf-syntax-ns#">
   <cc:Work>
    <dc:type rdf:resource="http://purl.org/dc/dcmitype/StillImage"/>
    <dc:date>2025-05-06T22:15:15.266412</dc:date>
    <dc:format>image/svg+xml</dc:format>
    <dc:creator>
     <cc:Agent>
      <dc:title>Matplotlib v3.10.1, https://matplotlib.org/</dc:title>
     </cc:Agent>
    </dc:creator>
   </cc:Work>
  </rdf:RDF>
 </metadata>
 <defs>
  <style type="text/css">*{stroke-linejoin: round; stroke-linecap: butt}</style>
 </defs>
 <g id="figure_1">
  <g id="patch_1">
   <path d="M 0 432 
L 576 432 
L 576 0 
L 0 0 
z
" style="fill: #ffffff"/>
  </g>
  <g id="axes_1">
   <g id="patch_2">
    <path d="M 51.32 386.44 
L 565.2 386.44 
L 565.2 26.88 
L 51.32 26.88 
z
" style="fill: #ffffff"/>
   </g>
   <g id="matplotlib.axis_1">
    <g id="xtick_1">
     <g id="line2d_1">
      <path d="M 51.32 386.44 
L 51.32 26.88 
" clip-path="url(#paa019812bf)" style="fill: none; stroke: #b0b0b0; stroke-width: 0.8; stroke-linecap: square"/>
     </g>
     <g id="line2d_2">
      <defs>
       <path id="m737236dad5" d="M 0 0 
L 0 3.5 
" style="stroke: #000000; stroke-width: 0.8"/>
      </defs>
      <g>
       <use xlink:href="#m737236dad5" x="51.32" y="386.44" style="stroke: #000000; stroke-width: 0.8"/>
      </g>
     </g>
     <g id="text_1">
      <!-- 0 -->
      <g transform="translate(48.13875 401.038437) scale(0.1 -0.1)">
       <defs>
        <path id="DejaVuSans-30" d="M 2034 4250 
Q 1547 4250 1301 3770 
Q 1056 3291 1056 2328 
Q 1056 1369 1301 889 
Q 1547 409 2034 409 
Q 2525 409 2770 889 
Q 3016 1369 3016 2328 
Q 3016 3291 2770 3770 
Q 2525 4250 2034 4250 
z
M 2034 4750 
Q 2819 4750 3233 4129 
Q 3647 3509 3647 2328 
Q 3647 1150 3233 529 
Q 2819 -91 2034 -91 
Q 1250 -91 836 529 
Q 422 1150 422 2328 
Q 422 3509 836 4129 
Q 1250 4750 2034 4750 
z
" transform="scale(0.015625)"/>
       </defs>
       <use xlink:href="#DejaVuSans-30"/>
      </g>
     </g>
    </g>
    <g id="xtick_2">
     <g id="line2d_3">
      <path d="M 137.023803 386.44 
L 137.023803 26.88 
" clip-path="url(#paa019812bf)" style="fill: none; stroke: #b0b0b0; stroke-width: 0.8; stroke-linecap: square"/>
     </g>
     <g id="line2d_4">
      <g>
       <use xlink:href="#m737236dad5" x="137.023803" y="386.44" style="stroke: #000000; stroke-width: 0.8"/>
      </g>
     </g>
     <g id="text_2">
      <!-- 2 -->
      <g transform="translate(133.842553 401.038437) scale(0.1 -0.1)">
       <defs>
        <path id="DejaVuSans-32" d="M 1228 531 
L 3431 531 
L 3431 0 
L 469 0 
L 469 531 
Q 828 903 1448 1529 
Q 2069 2156 2228 2338 
Q 2531 2678 2651 2914 
Q 2772 3150 2772 3378 
Q 2772 3750 2511 3984 
Q 2250 4219 1831 4219 
Q 1534 4219 1204 4116 
Q 875 4013 500 3803 
L 500 4441 
Q 881 4594 1212 4672 
Q 1544 4750 1819 4750 
Q 2544 4750 2975 4387 
Q 3406 4025 3406 3419 
Q 3406 3131 3298 2873 
Q 3191 2616 2906 2266 
Q 2828 2175 2409 1742 
Q 1991 1309 1228 531 
z
" transform="scale(0.015625)"/>
       </defs>
       <use xlink:href="#DejaVuSans-32"/>
      </g>
     </g>
    </g>
    <g id="xtick_3">
     <g id="line2d_5">
      <path d="M 222.727605 386.44 
L 222.727605 26.88 
" clip-path="url(#paa019812bf)" style="fill: none; stroke: #b0b0b0; stroke-width: 0.8; stroke-linecap: square"/>
     </g>
     <g id="line2d_6">
      <g>
       <use xlink:href="#m737236dad5" x="222.727605" y="386.44" style="stroke: #000000; stroke-width: 0.8"/>
      </g>
     </g>
     <g id="text_3">
      <!-- 4 -->
      <g transform="translate(219.546355 401.038437) scale(0.1 -0.1)">
       <defs>
        <path id="DejaVuSans-34" d="M 2419 4116 
L 825 1625 
L 2419 1625 
L 2419 4116 
z
M 2253 4666 
L 3047 4666 
L 3047 1625 
L 3713 1625 
L 3713 1100 
L 3047 1100 
L 3047 0 
L 2419 0 
L 2419 1100 
L 313 1100 
L 313 1709 
L 2253 4666 
z
" transform="scale(0.015625)"/>
       </defs>
       <use xlink:href="#DejaVuSans-34"/>
      </g>
     </g>
    </g>
    <g id="xtick_4">
     <g id="line2d_7">
      <path d="M 308.431408 386.44 
L 308.431408 26.88 
" clip-path="url(#paa019812bf)" style="fill: none; stroke: #b0b0b0; stroke-width: 0.8; stroke-linecap: square"/>
     </g>
     <g id="line2d_8">
      <g>
       <use xlink:href="#m737236dad5" x="308.431408" y="386.44" style="stroke: #000000; stroke-width: 0.8"/>
      </g>
     </g>
     <g id="text_4">
      <!-- 6 -->
      <g transform="translate(305.250158 401.038437) scale(0.1 -0.1)">
       <defs>
        <path id="DejaVuSans-36" d="M 2113 2584 
Q 1688 2584 1439 2293 
Q 1191 2003 1191 1497 
Q 1191 994 1439 701 
Q 1688 409 2113 409 
Q 2538 409 2786 701 
Q 3034 994 3034 1497 
Q 3034 2003 2786 2293 
Q 2538 2584 2113 2584 
z
M 3366 4563 
L 3366 3988 
Q 3128 4100 2886 4159 
Q 2644 4219 2406 4219 
Q 1781 4219 1451 3797 
Q 1122 3375 1075 2522 
Q 1259 2794 1537 2939 
Q 1816 3084 2150 3084 
Q 2853 3084 3261 2657 
Q 3669 2231 3669 1497 
Q 3669 778 3244 343 
Q 2819 -91 2113 -91 
Q 1303 -91 875 529 
Q 447 1150 447 2328 
Q 447 3434 972 4092 
Q 1497 4750 2381 4750 
Q 2619 4750 2861 4703 
Q 3103 4656 3366 4563 
z
" transform="scale(0.015625)"/>
       </defs>
       <use xlink:href="#DejaVuSans-36"/>
      </g>
     </g>
    </g>
    <g id="xtick_5">
     <g id="line2d_9">
      <path d="M 394.13521 386.44 
L 394.13521 26.88 
" clip-path="url(#paa019812bf)" style="fill: none; stroke: #b0b0b0; stroke-width: 0.8; stroke-linecap: square"/>
     </g>
     <g id="line2d_10">
      <g>
       <use xlink:href="#m737236dad5" x="394.13521" y="386.44" style="stroke: #000000; stroke-width: 0.8"/>
      </g>
     </g>
     <g id="text_5">
      <!-- 8 -->
      <g transform="translate(390.95396 401.038437) scale(0.1 -0.1)">
       <defs>
        <path id="DejaVuSans-38" d="M 2034 2216 
Q 1584 2216 1326 1975 
Q 1069 1734 1069 1313 
Q 1069 891 1326 650 
Q 1584 409 2034 409 
Q 2484 409 2743 651 
Q 3003 894 3003 1313 
Q 3003 1734 2745 1975 
Q 2488 2216 2034 2216 
z
M 1403 2484 
Q 997 2584 770 2862 
Q 544 3141 544 3541 
Q 544 4100 942 4425 
Q 1341 4750 2034 4750 
Q 2731 4750 3128 4425 
Q 3525 4100 3525 3541 
Q 3525 3141 3298 2862 
Q 3072 2584 2669 2484 
Q 3125 2378 3379 2068 
Q 3634 1759 3634 1313 
Q 3634 634 3220 271 
Q 2806 -91 2034 -91 
Q 1263 -91 848 271 
Q 434 634 434 1313 
Q 434 1759 690 2068 
Q 947 2378 1403 2484 
z
M 1172 3481 
Q 1172 3119 1398 2916 
Q 1625 2713 2034 2713 
Q 2441 2713 2670 2916 
Q 2900 3119 2900 3481 
Q 2900 3844 2670 4047 
Q 2441 4250 2034 4250 
Q 1625 4250 1398 4047 
Q 1172 3844 1172 3481 
z
" transform="scale(0.015625)"/>
       </defs>
       <use xlink:href="#DejaVuSans-38"/>
      </g>
     </g>
    </g>
    <g id="xtick_6">
     <g id="line2d_11">
      <path d="M 479.839013 386.44 
L 479.839013 26.88 
" clip-path="url(#paa019812bf)" style="fill: none; stroke: #b0b0b0; stroke-width: 0.8; stroke-linecap: square"/>
     </g>
     <g id="line2d_12">
      <g>
       <use xlink:href="#m737236dad5" x="479.839013" y="386.44" style="stroke: #000000; stroke-width: 0.8"/>
      </g>
     </g>
     <g id="text_6">
      <!-- 10 -->
      <g transform="translate(473.476513 401.038437) scale(0.1 -0.1)">
       <defs>
        <path id="DejaVuSans-31" d="M 794 531 
L 1825 531 
L 1825 4091 
L 703 3866 
L 703 4441 
L 1819 4666 
L 2450 4666 
L 2450 531 
L 3481 531 
L 3481 0 
L 794 0 
L 794 531 
z
" transform="scale(0.015625)"/>
       </defs>
       <use xlink:href="#DejaVuSans-31"/>
       <use xlink:href="#DejaVuSans-30" transform="translate(63.623047 0)"/>
      </g>
     </g>
    </g>
    <g id="text_7">
     <!-- Epoch -->
     <g transform="translate(286.824687 417.755938) scale(0.14 -0.14)">
      <defs>
       <path id="DejaVuSans-45" d="M 628 4666 
L 3578 4666 
L 3578 4134 
L 1259 4134 
L 1259 2753 
L 3481 2753 
L 3481 2222 
L 1259 2222 
L 1259 531 
L 3634 531 
L 3634 0 
L 628 0 
L 628 4666 
z
" transform="scale(0.015625)"/>
       <path id="DejaVuSans-70" d="M 1159 525 
L 1159 -1331 
L 581 -1331 
L 581 3500 
L 1159 3500 
L 1159 2969 
Q 1341 3281 1617 3432 
Q 1894 3584 2278 3584 
Q 2916 3584 3314 3078 
Q 3713 2572 3713 1747 
Q 3713 922 3314 415 
Q 2916 -91 2278 -91 
Q 1894 -91 1617 61 
Q 1341 213 1159 525 
z
M 3116 1747 
Q 3116 2381 2855 2742 
Q 2594 3103 2138 3103 
Q 1681 3103 1420 2742 
Q 1159 2381 1159 1747 
Q 1159 1113 1420 752 
Q 1681 391 2138 391 
Q 2594 391 2855 752 
Q 3116 1113 3116 1747 
z
" transform="scale(0.015625)"/>
       <path id="DejaVuSans-6f" d="M 1959 3097 
Q 1497 3097 1228 2736 
Q 959 2375 959 1747 
Q 959 1119 1226 758 
Q 1494 397 1959 397 
Q 2419 397 2687 759 
Q 2956 1122 2956 1747 
Q 2956 2369 2687 2733 
Q 2419 3097 1959 3097 
z
M 1959 3584 
Q 2709 3584 3137 3096 
Q 3566 2609 3566 1747 
Q 3566 888 3137 398 
Q 2709 -91 1959 -91 
Q 1206 -91 779 398 
Q 353 888 353 1747 
Q 353 2609 779 3096 
Q 1206 3584 1959 3584 
z
" transform="scale(0.015625)"/>
       <path id="DejaVuSans-63" d="M 3122 3366 
L 3122 2828 
Q 2878 2963 2633 3030 
Q 2388 3097 2138 3097 
Q 1578 3097 1268 2742 
Q 959 2388 959 1747 
Q 959 1106 1268 751 
Q 1578 397 2138 397 
Q 2388 397 2633 464 
Q 2878 531 3122 666 
L 3122 134 
Q 2881 22 2623 -34 
Q 2366 -91 2075 -91 
Q 1284 -91 818 406 
Q 353 903 353 1747 
Q 353 2603 823 3093 
Q 1294 3584 2113 3584 
Q 2378 3584 2631 3529 
Q 2884 3475 3122 3366 
z
" transform="scale(0.015625)"/>
       <path id="DejaVuSans-68" d="M 3513 2113 
L 3513 0 
L 2938 0 
L 2938 2094 
Q 2938 2591 2744 2837 
Q 2550 3084 2163 3084 
Q 1697 3084 1428 2787 
Q 1159 2491 1159 1978 
L 1159 0 
L 581 0 
L 581 4863 
L 1159 4863 
L 1159 2956 
Q 1366 3272 1645 3428 
Q 1925 3584 2291 3584 
Q 2894 3584 3203 3211 
Q 3513 2838 3513 2113 
z
" transform="scale(0.015625)"/>
      </defs>
      <use xlink:href="#DejaVuSans-45"/>
      <use xlink:href="#DejaVuSans-70" transform="translate(63.183594 0)"/>
      <use xlink:href="#DejaVuSans-6f" transform="translate(126.660156 0)"/>
      <use xlink:href="#DejaVuSans-63" transform="translate(187.841797 0)"/>
      <use xlink:href="#DejaVuSans-68" transform="translate(242.822266 0)"/>
     </g>
    </g>
   </g>
   <g id="matplotlib.axis_2">
    <g id="ytick_1">
     <g id="line2d_13">
      <path d="M 51.32 343.85581 
L 565.2 343.85581 
" clip-path="url(#paa019812bf)" style="fill: none; stroke: #b0b0b0; stroke-width: 0.8; stroke-linecap: square"/>
     </g>
     <g id="line2d_14">
      <defs>
       <path id="maa08a1c4b0" d="M 0 0 
L -3.5 0 
" style="stroke: #000000; stroke-width: 0.8"/>
      </defs>
      <g>
       <use xlink:href="#maa08a1c4b0" x="51.32" y="343.85581" style="stroke: #000000; stroke-width: 0.8"/>
      </g>
     </g>
     <g id="text_8">
      <!-- 0.2 -->
      <g transform="translate(28.416875 347.655029) scale(0.1 -0.1)">
       <defs>
        <path id="DejaVuSans-2e" d="M 684 794 
L 1344 794 
L 1344 0 
L 684 0 
L 684 794 
z
" transform="scale(0.015625)"/>
       </defs>
       <use xlink:href="#DejaVuSans-30"/>
       <use xlink:href="#DejaVuSans-2e" transform="translate(63.623047 0)"/>
       <use xlink:href="#DejaVuSans-32" transform="translate(95.410156 0)"/>
      </g>
     </g>
    </g>
    <g id="ytick_2">
     <g id="line2d_15">
      <path d="M 51.32 298.525416 
L 565.2 298.525416 
" clip-path="url(#paa019812bf)" style="fill: none; stroke: #b0b0b0; stroke-width: 0.8; stroke-linecap: square"/>
     </g>
     <g id="line2d_16">
      <g>
       <use xlink:href="#maa08a1c4b0" x="51.32" y="298.525416" style="stroke: #000000; stroke-width: 0.8"/>
      </g>
     </g>
     <g id="text_9">
      <!-- 0.3 -->
      <g transform="translate(28.416875 302.324635) scale(0.1 -0.1)">
       <defs>
        <path id="DejaVuSans-33" d="M 2597 2516 
Q 3050 2419 3304 2112 
Q 3559 1806 3559 1356 
Q 3559 666 3084 287 
Q 2609 -91 1734 -91 
Q 1441 -91 1130 -33 
Q 819 25 488 141 
L 488 750 
Q 750 597 1062 519 
Q 1375 441 1716 441 
Q 2309 441 2620 675 
Q 2931 909 2931 1356 
Q 2931 1769 2642 2001 
Q 2353 2234 1838 2234 
L 1294 2234 
L 1294 2753 
L 1863 2753 
Q 2328 2753 2575 2939 
Q 2822 3125 2822 3475 
Q 2822 3834 2567 4026 
Q 2313 4219 1838 4219 
Q 1578 4219 1281 4162 
Q 984 4106 628 3988 
L 628 4550 
Q 988 4650 1302 4700 
Q 1616 4750 1894 4750 
Q 2613 4750 3031 4423 
Q 3450 4097 3450 3541 
Q 3450 3153 3228 2886 
Q 3006 2619 2597 2516 
z
" transform="scale(0.015625)"/>
       </defs>
       <use xlink:href="#DejaVuSans-30"/>
       <use xlink:href="#DejaVuSans-2e" transform="translate(63.623047 0)"/>
       <use xlink:href="#DejaVuSans-33" transform="translate(95.410156 0)"/>
      </g>
     </g>
    </g>
    <g id="ytick_3">
     <g id="line2d_17">
      <path d="M 51.32 253.195023 
L 565.2 253.195023 
" clip-path="url(#paa019812bf)" style="fill: none; stroke: #b0b0b0; stroke-width: 0.8; stroke-linecap: square"/>
     </g>
     <g id="line2d_18">
      <g>
       <use xlink:href="#maa08a1c4b0" x="51.32" y="253.195023" style="stroke: #000000; stroke-width: 0.8"/>
      </g>
     </g>
     <g id="text_10">
      <!-- 0.4 -->
      <g transform="translate(28.416875 256.994242) scale(0.1 -0.1)">
       <use xlink:href="#DejaVuSans-30"/>
       <use xlink:href="#DejaVuSans-2e" transform="translate(63.623047 0)"/>
       <use xlink:href="#DejaVuSans-34" transform="translate(95.410156 0)"/>
      </g>
     </g>
    </g>
    <g id="ytick_4">
     <g id="line2d_19">
      <path d="M 51.32 207.864629 
L 565.2 207.864629 
" clip-path="url(#paa019812bf)" style="fill: none; stroke: #b0b0b0; stroke-width: 0.8; stroke-linecap: square"/>
     </g>
     <g id="line2d_20">
      <g>
       <use xlink:href="#maa08a1c4b0" x="51.32" y="207.864629" style="stroke: #000000; stroke-width: 0.8"/>
      </g>
     </g>
     <g id="text_11">
      <!-- 0.5 -->
      <g transform="translate(28.416875 211.663848) scale(0.1 -0.1)">
       <defs>
        <path id="DejaVuSans-35" d="M 691 4666 
L 3169 4666 
L 3169 4134 
L 1269 4134 
L 1269 2991 
Q 1406 3038 1543 3061 
Q 1681 3084 1819 3084 
Q 2600 3084 3056 2656 
Q 3513 2228 3513 1497 
Q 3513 744 3044 326 
Q 2575 -91 1722 -91 
Q 1428 -91 1123 -41 
Q 819 9 494 109 
L 494 744 
Q 775 591 1075 516 
Q 1375 441 1709 441 
Q 2250 441 2565 725 
Q 2881 1009 2881 1497 
Q 2881 1984 2565 2268 
Q 2250 2553 1709 2553 
Q 1456 2553 1204 2497 
Q 953 2441 691 2322 
L 691 4666 
z
" transform="scale(0.015625)"/>
       </defs>
       <use xlink:href="#DejaVuSans-30"/>
       <use xlink:href="#DejaVuSans-2e" transform="translate(63.623047 0)"/>
       <use xlink:href="#DejaVuSans-35" transform="translate(95.410156 0)"/>
      </g>
     </g>
    </g>
    <g id="ytick_5">
     <g id="line2d_21">
      <path d="M 51.32 162.534236 
L 565.2 162.534236 
" clip-path="url(#paa019812bf)" style="fill: none; stroke: #b0b0b0; stroke-width: 0.8; stroke-linecap: square"/>
     </g>
     <g id="line2d_22">
      <g>
       <use xlink:href="#maa08a1c4b0" x="51.32" y="162.534236" style="stroke: #000000; stroke-width: 0.8"/>
      </g>
     </g>
     <g id="text_12">
      <!-- 0.6 -->
      <g transform="translate(28.416875 166.333455) scale(0.1 -0.1)">
       <use xlink:href="#DejaVuSans-30"/>
       <use xlink:href="#DejaVuSans-2e" transform="translate(63.623047 0)"/>
       <use xlink:href="#DejaVuSans-36" transform="translate(95.410156 0)"/>
      </g>
     </g>
    </g>
    <g id="ytick_6">
     <g id="line2d_23">
      <path d="M 51.32 117.203842 
L 565.2 117.203842 
" clip-path="url(#paa019812bf)" style="fill: none; stroke: #b0b0b0; stroke-width: 0.8; stroke-linecap: square"/>
     </g>
     <g id="line2d_24">
      <g>
       <use xlink:href="#maa08a1c4b0" x="51.32" y="117.203842" style="stroke: #000000; stroke-width: 0.8"/>
      </g>
     </g>
     <g id="text_13">
      <!-- 0.7 -->
      <g transform="translate(28.416875 121.003061) scale(0.1 -0.1)">
       <defs>
        <path id="DejaVuSans-37" d="M 525 4666 
L 3525 4666 
L 3525 4397 
L 1831 0 
L 1172 0 
L 2766 4134 
L 525 4134 
L 525 4666 
z
" transform="scale(0.015625)"/>
       </defs>
       <use xlink:href="#DejaVuSans-30"/>
       <use xlink:href="#DejaVuSans-2e" transform="translate(63.623047 0)"/>
       <use xlink:href="#DejaVuSans-37" transform="translate(95.410156 0)"/>
      </g>
     </g>
    </g>
    <g id="ytick_7">
     <g id="line2d_25">
      <path d="M 51.32 71.873449 
L 565.2 71.873449 
" clip-path="url(#paa019812bf)" style="fill: none; stroke: #b0b0b0; stroke-width: 0.8; stroke-linecap: square"/>
     </g>
     <g id="line2d_26">
      <g>
       <use xlink:href="#maa08a1c4b0" x="51.32" y="71.873449" style="stroke: #000000; stroke-width: 0.8"/>
      </g>
     </g>
     <g id="text_14">
      <!-- 0.8 -->
      <g transform="translate(28.416875 75.672668) scale(0.1 -0.1)">
       <use xlink:href="#DejaVuSans-30"/>
       <use xlink:href="#DejaVuSans-2e" transform="translate(63.623047 0)"/>
       <use xlink:href="#DejaVuSans-38" transform="translate(95.410156 0)"/>
      </g>
     </g>
    </g>
    <g id="text_15">
     <!-- Loss -->
     <g transform="translate(21.505313 222.014062) rotate(-90) scale(0.14 -0.14)">
      <defs>
       <path id="DejaVuSans-4c" d="M 628 4666 
L 1259 4666 
L 1259 531 
L 3531 531 
L 3531 0 
L 628 0 
L 628 4666 
z
" transform="scale(0.015625)"/>
       <path id="DejaVuSans-73" d="M 2834 3397 
L 2834 2853 
Q 2591 2978 2328 3040 
Q 2066 3103 1784 3103 
Q 1356 3103 1142 2972 
Q 928 2841 928 2578 
Q 928 2378 1081 2264 
Q 1234 2150 1697 2047 
L 1894 2003 
Q 2506 1872 2764 1633 
Q 3022 1394 3022 966 
Q 3022 478 2636 193 
Q 2250 -91 1575 -91 
Q 1294 -91 989 -36 
Q 684 19 347 128 
L 347 722 
Q 666 556 975 473 
Q 1284 391 1588 391 
Q 1994 391 2212 530 
Q 2431 669 2431 922 
Q 2431 1156 2273 1281 
Q 2116 1406 1581 1522 
L 1381 1569 
Q 847 1681 609 1914 
Q 372 2147 372 2553 
Q 372 3047 722 3315 
Q 1072 3584 1716 3584 
Q 2034 3584 2315 3537 
Q 2597 3491 2834 3397 
z
" transform="scale(0.015625)"/>
      </defs>
      <use xlink:href="#DejaVuSans-4c"/>
      <use xlink:href="#DejaVuSans-6f" transform="translate(53.962891 0)"/>
      <use xlink:href="#DejaVuSans-73" transform="translate(115.144531 0)"/>
      <use xlink:href="#DejaVuSans-73" transform="translate(167.244141 0)"/>
     </g>
    </g>
   </g>
   <g id="line2d_27">
    <path d="M 51.32 43.223636 
L 52.691261 112.847166 
L 54.062522 150.844068 
L 55.433783 171.912311 
L 56.805043 188.560458 
L 58.176304 191.827355 
L 59.547565 210.024489 
L 60.918826 217.977078 
L 62.290087 219.753349 
L 63.661348 223.371601 
L 65.032608 243.253831 
L 66.403869 233.476782 
L 67.77513 239.541431 
L 69.146391 239.401473 
L 70.517652 249.22159 
L 71.888913 241.770527 
L 73.260173 248.71782 
L 74.631434 254.902973 
L 76.002695 253.251247 
L 77.373956 247.601826 
L 78.745217 252.378384 
L 80.116478 264.24792 
L 81.487738 259.892792 
L 82.858999 257.824797 
L 84.23026 273.253427 
L 85.601521 272.35241 
L 86.972782 264.94085 
L 88.344043 263.517961 
L 89.715304 271.524818 
L 91.086564 273.5463 
L 92.457825 273.528981 
L 93.829086 280.983744 
L 94.171901 273.827919 
L 95.543162 272.224786 
L 96.914423 276.490846 
L 98.285684 275.771803 
L 99.656945 279.538821 
L 101.028205 282.221013 
L 102.399466 283.539379 
L 103.770727 279.282033 
L 105.141988 274.513311 
L 106.513249 295.76327 
L 107.88451 279.984338 
L 109.255771 284.046526 
L 110.627031 280.547887 
L 111.998292 285.298628 
L 113.369553 285.07183 
L 114.740814 281.257582 
L 117.483336 286.161413 
L 118.854596 283.044526 
L 120.225857 288.383254 
L 121.597118 289.773153 
L 122.968379 290.384904 
L 124.33964 291.635047 
L 125.710901 290.014406 
L 127.082161 294.257135 
L 128.453422 297.9413 
L 129.824683 295.056155 
L 131.195944 298.637729 
L 132.567205 297.47429 
L 133.938466 300.571994 
L 135.309726 297.931803 
L 136.680987 296.527314 
L 137.023803 294.39396 
L 138.395063 293.528919 
L 139.766324 291.288691 
L 141.137585 298.498149 
L 142.508846 298.38321 
L 143.880107 299.112399 
L 145.251368 295.489811 
L 146.622628 299.08769 
L 147.993889 298.02048 
L 150.736411 306.828599 
L 152.107672 299.769502 
L 153.478933 298.968199 
L 154.850193 308.585038 
L 156.221454 305.259051 
L 157.592715 302.988467 
L 158.963976 299.484235 
L 161.706498 305.184059 
L 163.077759 308.751543 
L 164.449019 292.895741 
L 165.82028 304.256132 
L 167.191541 307.782087 
L 168.562802 297.514886 
L 171.305324 303.672831 
L 172.676584 307.972922 
L 174.047845 306.509491 
L 175.419106 306.316372 
L 176.790367 307.889528 
L 178.161628 307.516841 
L 179.532889 305.495494 
L 179.875704 312.720177 
L 181.246965 307.318765 
L 182.618225 302.834539 
L 183.989486 314.741335 
L 185.360747 304.679317 
L 186.732008 305.570864 
L 188.103269 312.52941 
L 189.47453 305.085697 
L 190.845791 312.004997 
L 192.217051 308.691493 
L 193.588312 312.288954 
L 194.959573 308.490647 
L 196.330834 305.483079 
L 197.702095 318.804266 
L 199.073356 314.776568 
L 200.444616 308.333896 
L 201.815877 313.2357 
L 203.187138 313.050944 
L 204.558399 306.884501 
L 205.92966 304.963044 
L 207.300921 313.510497 
L 208.672181 314.62972 
L 210.043442 312.398111 
L 211.414703 307.428381 
L 212.785964 316.650283 
L 214.157225 312.506592 
L 215.528486 310.82786 
L 216.899746 307.702637 
L 218.271007 313.944868 
L 219.642268 308.662731 
L 221.013529 319.712065 
L 222.38479 315.114063 
L 222.727605 310.323212 
L 224.098866 308.45205 
L 225.470127 312.373848 
L 226.841388 317.428106 
L 228.212648 323.02153 
L 229.583909 306.572526 
L 230.95517 317.1311 
L 232.326431 320.721806 
L 233.697692 311.013278 
L 235.068953 315.51235 
L 236.440213 318.971649 
L 237.811474 312.357744 
L 239.182735 323.16342 
L 240.553996 316.628222 
L 241.925257 313.890452 
L 243.296518 312.56852 
L 244.667779 319.096842 
L 246.039039 314.731203 
L 247.4103 319.317276 
L 248.781561 317.554718 
L 250.152822 316.186515 
L 251.524083 311.386667 
L 252.895344 317.658038 
L 254.266604 314.964512 
L 255.637865 315.353937 
L 257.009126 322.750016 
L 258.380387 316.725153 
L 259.751648 321.056166 
L 261.122909 321.774724 
L 262.494169 317.919853 
L 263.86543 314.525264 
L 265.236691 323.194141 
L 265.579506 315.914987 
L 266.950767 322.256851 
L 268.322028 323.360619 
L 269.693289 314.264855 
L 271.06455 314.37158 
L 272.435811 318.598827 
L 273.807071 320.390121 
L 275.178332 317.935145 
L 276.549593 320.537739 
L 277.920854 317.368719 
L 279.292115 324.278826 
L 280.663376 319.831489 
L 282.034636 317.398858 
L 283.405897 320.490496 
L 284.777158 315.56786 
L 286.148419 322.169512 
L 288.890941 321.252757 
L 290.262201 313.380563 
L 291.633462 324.496336 
L 293.004723 316.40133 
L 294.375984 322.503994 
L 295.747245 314.069804 
L 297.118506 325.564729 
L 298.489767 320.968733 
L 299.861027 324.972438 
L 301.232288 324.271578 
L 302.603549 321.353065 
L 303.97481 328.221178 
L 305.346071 325.554077 
L 306.717332 319.049869 
L 308.088592 313.772757 
L 308.431408 326.620572 
L 309.802668 321.089278 
L 311.173929 323.47064 
L 312.54519 323.750388 
L 313.916451 321.285592 
L 315.287712 320.314819 
L 316.658973 328.706953 
L 318.030233 325.666868 
L 319.401494 326.081866 
L 320.772755 316.615253 
L 322.144016 331.860235 
L 323.515277 326.074598 
L 324.886538 321.289807 
L 326.257799 323.179828 
L 327.629059 325.58629 
L 329.00032 318.083966 
L 330.371581 324.279427 
L 331.742842 328.612954 
L 333.114103 322.907888 
L 334.485364 319.422245 
L 335.856624 319.165781 
L 337.227885 329.374053 
L 338.599146 322.093035 
L 339.970407 323.720519 
L 341.341668 327.689248 
L 342.712929 327.069141 
L 344.084189 322.755217 
L 345.45545 319.709403 
L 346.826711 326.180634 
L 348.197972 327.827491 
L 349.569233 326.349111 
L 350.940494 329.476063 
L 351.283309 327.657845 
L 352.65457 321.629199 
L 354.025831 322.578148 
L 355.397091 322.170937 
L 356.768352 326.48066 
L 358.139613 323.272604 
L 359.510874 327.765104 
L 360.882135 326.130636 
L 362.253396 319.914532 
L 363.624656 333.506781 
L 364.995917 321.878706 
L 366.367178 327.606023 
L 367.738439 324.011419 
L 369.1097 330.794983 
L 370.480961 325.89657 
L 371.852221 326.420104 
L 373.223482 323.962873 
L 374.594743 322.410725 
L 375.966004 325.270931 
L 377.337265 325.137146 
L 378.708526 327.923118 
L 380.079787 328.420376 
L 381.451047 325.784954 
L 382.822308 325.8038 
L 384.193569 331.130917 
L 385.56483 331.010426 
L 386.936091 327.391424 
L 388.307352 330.673681 
L 389.678612 328.625059 
L 391.049873 331.499166 
L 392.421134 329.197673 
L 393.792395 328.77981 
L 394.13521 331.894346 
L 395.506471 328.302911 
L 396.877732 329.478373 
L 398.248993 328.361123 
L 399.620254 325.693326 
L 400.991514 324.772444 
L 402.362775 332.550571 
L 403.734036 330.448518 
L 405.105297 332.567769 
L 406.476558 322.939379 
L 407.847819 335.965694 
L 409.219079 330.948978 
L 410.59034 325.492912 
L 411.961601 326.243893 
L 413.332862 331.052427 
L 414.704123 323.212622 
L 416.075384 329.555729 
L 417.446644 332.743068 
L 420.189166 324.013493 
L 421.560427 324.515709 
L 422.931688 334.033199 
L 424.302949 326.03636 
L 425.674209 328.432589 
L 427.04547 332.246121 
L 428.416731 330.973984 
L 429.787992 326.804929 
L 431.159253 323.851244 
L 432.530514 328.984999 
L 433.901775 331.920589 
L 435.273035 329.98292 
L 436.644296 332.7808 
L 436.987111 331.860444 
L 438.358372 327.376692 
L 439.729633 326.457931 
L 441.100894 326.162086 
L 442.472155 330.501408 
L 443.843416 326.800201 
L 445.214676 331.089234 
L 446.585937 331.382775 
L 447.957198 323.902728 
L 449.328459 337.168094 
L 450.69972 325.406208 
L 452.070981 331.143164 
L 453.442241 328.168207 
L 454.813502 335.355226 
L 456.184763 329.244112 
L 457.556024 329.51978 
L 458.927285 328.434993 
L 460.298546 326.913741 
L 461.669807 328.597263 
L 463.041067 329.085287 
L 464.412328 332.517284 
L 465.783589 332.658964 
L 467.15485 328.694065 
L 468.526111 329.343913 
L 469.897372 335.094067 
L 471.268632 334.01511 
L 472.639893 330.697998 
L 474.011154 333.831489 
L 475.382415 333.424947 
L 476.753676 335.68267 
L 478.124937 333.917895 
L 479.496197 334.261037 
L 479.839013 325.82376 
L 481.210274 328.774987 
L 482.581534 327.861933 
L 483.952795 332.652446 
L 485.324056 331.960354 
L 486.695317 331.789148 
L 488.066578 329.610226 
L 489.437839 330.912516 
L 490.809099 331.928174 
L 492.18036 331.748755 
L 493.551621 339.166691 
L 494.922882 331.71415 
L 496.294143 332.484138 
L 497.665404 338.611018 
L 499.036664 335.757499 
L 500.407925 331.329115 
L 501.779186 331.906438 
L 504.521708 336.538693 
L 505.892969 335.6318 
L 507.264229 327.816737 
L 508.63549 331.816289 
L 510.006751 337.006798 
L 511.378012 329.17495 
L 512.749273 326.86837 
L 514.120534 333.560056 
L 515.491795 335.803742 
L 516.863055 335.044237 
L 518.234316 333.200635 
L 519.605577 336.500022 
L 520.976838 334.386959 
L 522.348099 331.671669 
L 522.690914 335.607678 
L 524.062175 334.093566 
L 525.433436 329.392399 
L 526.804696 339.18397 
L 528.175957 334.467388 
L 529.547218 327.709938 
L 530.918479 336.269827 
L 532.28974 330.048123 
L 533.661001 335.393492 
L 535.032262 334.96903 
L 536.403522 335.389554 
L 537.774783 332.766858 
L 539.146044 331.713684 
L 540.517305 337.857721 
L 541.888566 336.7156 
L 543.259827 331.049908 
L 544.631087 337.053736 
L 546.002348 336.361151 
L 547.373609 329.689324 
L 548.74487 329.444985 
L 550.116131 336.76491 
L 551.487392 337.218485 
L 552.858652 336.479866 
L 554.229913 331.827339 
L 555.601174 338.389638 
L 556.972435 336.90805 
L 558.343696 332.051178 
L 559.714957 329.498962 
L 561.086217 333.519122 
L 562.457478 331.561884 
L 563.828739 340.179459 
L 565.2 334.392187 
L 565.2 334.392187 
" clip-path="url(#paa019812bf)" style="fill: none; stroke: #0000ff; stroke-width: 1.5; stroke-linecap: square"/>
   </g>
   <g id="line2d_28">
    <path d="M 94.171901 321.841006 
L 137.023803 341.319469 
L 179.875704 346.715663 
L 222.727605 351.655818 
L 265.579506 355.994821 
L 308.431408 361.303779 
L 351.283309 363.818794 
L 394.13521 366.784703 
L 436.987111 367.584166 
L 479.839013 370.096364 
L 522.690914 369.840048 
L 565.542815 369.662153 
" clip-path="url(#paa019812bf)" style="fill: none; stroke: #ffa500; stroke-width: 1.5; stroke-linecap: square"/>
   </g>
   <g id="line2d_29">
    <path d="M 394.13521 386.44 
L 394.13521 26.88 
" clip-path="url(#paa019812bf)" style="fill: none; stroke-dasharray: 5.55,2.4; stroke-dashoffset: 0; stroke: #ff0000; stroke-width: 1.5"/>
   </g>
   <g id="patch_3">
    <path d="M 51.32 386.44 
L 51.32 26.88 
" style="fill: none; stroke: #000000; stroke-width: 0.8; stroke-linejoin: miter; stroke-linecap: square"/>
   </g>
   <g id="patch_4">
    <path d="M 565.2 386.44 
L 565.2 26.88 
" style="fill: none; stroke: #000000; stroke-width: 0.8; stroke-linejoin: miter; stroke-linecap: square"/>
   </g>
   <g id="patch_5">
    <path d="M 51.32 386.44 
L 565.2 386.44 
" style="fill: none; stroke: #000000; stroke-width: 0.8; stroke-linejoin: miter; stroke-linecap: square"/>
   </g>
   <g id="patch_6">
    <path d="M 51.32 26.88 
L 565.2 26.88 
" style="fill: none; stroke: #000000; stroke-width: 0.8; stroke-linejoin: miter; stroke-linecap: square"/>
   </g>
   <g id="text_16">
    <!-- Training and Evaluation Loss Over Epochs for timm/resnet50.a1_in1k -->
    <g transform="translate(84.193828 20.88) scale(0.13 -0.13)">
     <defs>
      <path id="DejaVuSans-54" d="M -19 4666 
L 3928 4666 
L 3928 4134 
L 2272 4134 
L 2272 0 
L 1638 0 
L 1638 4134 
L -19 4134 
L -19 4666 
z
" transform="scale(0.015625)"/>
      <path id="DejaVuSans-72" d="M 2631 2963 
Q 2534 3019 2420 3045 
Q 2306 3072 2169 3072 
Q 1681 3072 1420 2755 
Q 1159 2438 1159 1844 
L 1159 0 
L 581 0 
L 581 3500 
L 1159 3500 
L 1159 2956 
Q 1341 3275 1631 3429 
Q 1922 3584 2338 3584 
Q 2397 3584 2469 3576 
Q 2541 3569 2628 3553 
L 2631 2963 
z
" transform="scale(0.015625)"/>
      <path id="DejaVuSans-61" d="M 2194 1759 
Q 1497 1759 1228 1600 
Q 959 1441 959 1056 
Q 959 750 1161 570 
Q 1363 391 1709 391 
Q 2188 391 2477 730 
Q 2766 1069 2766 1631 
L 2766 1759 
L 2194 1759 
z
M 3341 1997 
L 3341 0 
L 2766 0 
L 2766 531 
Q 2569 213 2275 61 
Q 1981 -91 1556 -91 
Q 1019 -91 701 211 
Q 384 513 384 1019 
Q 384 1609 779 1909 
Q 1175 2209 1959 2209 
L 2766 2209 
L 2766 2266 
Q 2766 2663 2505 2880 
Q 2244 3097 1772 3097 
Q 1472 3097 1187 3025 
Q 903 2953 641 2809 
L 641 3341 
Q 956 3463 1253 3523 
Q 1550 3584 1831 3584 
Q 2591 3584 2966 3190 
Q 3341 2797 3341 1997 
z
" transform="scale(0.015625)"/>
      <path id="DejaVuSans-69" d="M 603 3500 
L 1178 3500 
L 1178 0 
L 603 0 
L 603 3500 
z
M 603 4863 
L 1178 4863 
L 1178 4134 
L 603 4134 
L 603 4863 
z
" transform="scale(0.015625)"/>
      <path id="DejaVuSans-6e" d="M 3513 2113 
L 3513 0 
L 2938 0 
L 2938 2094 
Q 2938 2591 2744 2837 
Q 2550 3084 2163 3084 
Q 1697 3084 1428 2787 
Q 1159 2491 1159 1978 
L 1159 0 
L 581 0 
L 581 3500 
L 1159 3500 
L 1159 2956 
Q 1366 3272 1645 3428 
Q 1925 3584 2291 3584 
Q 2894 3584 3203 3211 
Q 3513 2838 3513 2113 
z
" transform="scale(0.015625)"/>
      <path id="DejaVuSans-67" d="M 2906 1791 
Q 2906 2416 2648 2759 
Q 2391 3103 1925 3103 
Q 1463 3103 1205 2759 
Q 947 2416 947 1791 
Q 947 1169 1205 825 
Q 1463 481 1925 481 
Q 2391 481 2648 825 
Q 2906 1169 2906 1791 
z
M 3481 434 
Q 3481 -459 3084 -895 
Q 2688 -1331 1869 -1331 
Q 1566 -1331 1297 -1286 
Q 1028 -1241 775 -1147 
L 775 -588 
Q 1028 -725 1275 -790 
Q 1522 -856 1778 -856 
Q 2344 -856 2625 -561 
Q 2906 -266 2906 331 
L 2906 616 
Q 2728 306 2450 153 
Q 2172 0 1784 0 
Q 1141 0 747 490 
Q 353 981 353 1791 
Q 353 2603 747 3093 
Q 1141 3584 1784 3584 
Q 2172 3584 2450 3431 
Q 2728 3278 2906 2969 
L 2906 3500 
L 3481 3500 
L 3481 434 
z
" transform="scale(0.015625)"/>
      <path id="DejaVuSans-20" transform="scale(0.015625)"/>
      <path id="DejaVuSans-64" d="M 2906 2969 
L 2906 4863 
L 3481 4863 
L 3481 0 
L 2906 0 
L 2906 525 
Q 2725 213 2448 61 
Q 2172 -91 1784 -91 
Q 1150 -91 751 415 
Q 353 922 353 1747 
Q 353 2572 751 3078 
Q 1150 3584 1784 3584 
Q 2172 3584 2448 3432 
Q 2725 3281 2906 2969 
z
M 947 1747 
Q 947 1113 1208 752 
Q 1469 391 1925 391 
Q 2381 391 2643 752 
Q 2906 1113 2906 1747 
Q 2906 2381 2643 2742 
Q 2381 3103 1925 3103 
Q 1469 3103 1208 2742 
Q 947 2381 947 1747 
z
" transform="scale(0.015625)"/>
      <path id="DejaVuSans-76" d="M 191 3500 
L 800 3500 
L 1894 563 
L 2988 3500 
L 3597 3500 
L 2284 0 
L 1503 0 
L 191 3500 
z
" transform="scale(0.015625)"/>
      <path id="DejaVuSans-6c" d="M 603 4863 
L 1178 4863 
L 1178 0 
L 603 0 
L 603 4863 
z
" transform="scale(0.015625)"/>
      <path id="DejaVuSans-75" d="M 544 1381 
L 544 3500 
L 1119 3500 
L 1119 1403 
Q 1119 906 1312 657 
Q 1506 409 1894 409 
Q 2359 409 2629 706 
Q 2900 1003 2900 1516 
L 2900 3500 
L 3475 3500 
L 3475 0 
L 2900 0 
L 2900 538 
Q 2691 219 2414 64 
Q 2138 -91 1772 -91 
Q 1169 -91 856 284 
Q 544 659 544 1381 
z
M 1991 3584 
L 1991 3584 
z
" transform="scale(0.015625)"/>
      <path id="DejaVuSans-74" d="M 1172 4494 
L 1172 3500 
L 2356 3500 
L 2356 3053 
L 1172 3053 
L 1172 1153 
Q 1172 725 1289 603 
Q 1406 481 1766 481 
L 2356 481 
L 2356 0 
L 1766 0 
Q 1100 0 847 248 
Q 594 497 594 1153 
L 594 3053 
L 172 3053 
L 172 3500 
L 594 3500 
L 594 4494 
L 1172 4494 
z
" transform="scale(0.015625)"/>
      <path id="DejaVuSans-4f" d="M 2522 4238 
Q 1834 4238 1429 3725 
Q 1025 3213 1025 2328 
Q 1025 1447 1429 934 
Q 1834 422 2522 422 
Q 3209 422 3611 934 
Q 4013 1447 4013 2328 
Q 4013 3213 3611 3725 
Q 3209 4238 2522 4238 
z
M 2522 4750 
Q 3503 4750 4090 4092 
Q 4678 3434 4678 2328 
Q 4678 1225 4090 567 
Q 3503 -91 2522 -91 
Q 1538 -91 948 565 
Q 359 1222 359 2328 
Q 359 3434 948 4092 
Q 1538 4750 2522 4750 
z
" transform="scale(0.015625)"/>
      <path id="DejaVuSans-65" d="M 3597 1894 
L 3597 1613 
L 953 1613 
Q 991 1019 1311 708 
Q 1631 397 2203 397 
Q 2534 397 2845 478 
Q 3156 559 3463 722 
L 3463 178 
Q 3153 47 2828 -22 
Q 2503 -91 2169 -91 
Q 1331 -91 842 396 
Q 353 884 353 1716 
Q 353 2575 817 3079 
Q 1281 3584 2069 3584 
Q 2775 3584 3186 3129 
Q 3597 2675 3597 1894 
z
M 3022 2063 
Q 3016 2534 2758 2815 
Q 2500 3097 2075 3097 
Q 1594 3097 1305 2825 
Q 1016 2553 972 2059 
L 3022 2063 
z
" transform="scale(0.015625)"/>
      <path id="DejaVuSans-66" d="M 2375 4863 
L 2375 4384 
L 1825 4384 
Q 1516 4384 1395 4259 
Q 1275 4134 1275 3809 
L 1275 3500 
L 2222 3500 
L 2222 3053 
L 1275 3053 
L 1275 0 
L 697 0 
L 697 3053 
L 147 3053 
L 147 3500 
L 697 3500 
L 697 3744 
Q 697 4328 969 4595 
Q 1241 4863 1831 4863 
L 2375 4863 
z
" transform="scale(0.015625)"/>
      <path id="DejaVuSans-6d" d="M 3328 2828 
Q 3544 3216 3844 3400 
Q 4144 3584 4550 3584 
Q 5097 3584 5394 3201 
Q 5691 2819 5691 2113 
L 5691 0 
L 5113 0 
L 5113 2094 
Q 5113 2597 4934 2840 
Q 4756 3084 4391 3084 
Q 3944 3084 3684 2787 
Q 3425 2491 3425 1978 
L 3425 0 
L 2847 0 
L 2847 2094 
Q 2847 2600 2669 2842 
Q 2491 3084 2119 3084 
Q 1678 3084 1418 2786 
Q 1159 2488 1159 1978 
L 1159 0 
L 581 0 
L 581 3500 
L 1159 3500 
L 1159 2956 
Q 1356 3278 1631 3431 
Q 1906 3584 2284 3584 
Q 2666 3584 2933 3390 
Q 3200 3197 3328 2828 
z
" transform="scale(0.015625)"/>
      <path id="DejaVuSans-2f" d="M 1625 4666 
L 2156 4666 
L 531 -594 
L 0 -594 
L 1625 4666 
z
" transform="scale(0.015625)"/>
      <path id="DejaVuSans-5f" d="M 3263 -1063 
L 3263 -1509 
L -63 -1509 
L -63 -1063 
L 3263 -1063 
z
" transform="scale(0.015625)"/>
      <path id="DejaVuSans-6b" d="M 581 4863 
L 1159 4863 
L 1159 1991 
L 2875 3500 
L 3609 3500 
L 1753 1863 
L 3688 0 
L 2938 0 
L 1159 1709 
L 1159 0 
L 581 0 
L 581 4863 
z
" transform="scale(0.015625)"/>
     </defs>
     <use xlink:href="#DejaVuSans-54"/>
     <use xlink:href="#DejaVuSans-72" transform="translate(46.333984 0)"/>
     <use xlink:href="#DejaVuSans-61" transform="translate(87.447266 0)"/>
     <use xlink:href="#DejaVuSans-69" transform="translate(148.726562 0)"/>
     <use xlink:href="#DejaVuSans-6e" transform="translate(176.509766 0)"/>
     <use xlink:href="#DejaVuSans-69" transform="translate(239.888672 0)"/>
     <use xlink:href="#DejaVuSans-6e" transform="translate(267.671875 0)"/>
     <use xlink:href="#DejaVuSans-67" transform="translate(331.050781 0)"/>
     <use xlink:href="#DejaVuSans-20" transform="translate(394.527344 0)"/>
     <use xlink:href="#DejaVuSans-61" transform="translate(426.314453 0)"/>
     <use xlink:href="#DejaVuSans-6e" transform="translate(487.59375 0)"/>
     <use xlink:href="#DejaVuSans-64" transform="translate(550.972656 0)"/>
     <use xlink:href="#DejaVuSans-20" transform="translate(614.449219 0)"/>
     <use xlink:href="#DejaVuSans-45" transform="translate(646.236328 0)"/>
     <use xlink:href="#DejaVuSans-76" transform="translate(709.419922 0)"/>
     <use xlink:href="#DejaVuSans-61" transform="translate(768.599609 0)"/>
     <use xlink:href="#DejaVuSans-6c" transform="translate(829.878906 0)"/>
     <use xlink:href="#DejaVuSans-75" transform="translate(857.662109 0)"/>
     <use xlink:href="#DejaVuSans-61" transform="translate(921.041016 0)"/>
     <use xlink:href="#DejaVuSans-74" transform="translate(982.320312 0)"/>
     <use xlink:href="#DejaVuSans-69" transform="translate(1021.529297 0)"/>
     <use xlink:href="#DejaVuSans-6f" transform="translate(1049.3125 0)"/>
     <use xlink:href="#DejaVuSans-6e" transform="translate(1110.494141 0)"/>
     <use xlink:href="#DejaVuSans-20" transform="translate(1173.873047 0)"/>
     <use xlink:href="#DejaVuSans-4c" transform="translate(1205.660156 0)"/>
     <use xlink:href="#DejaVuSans-6f" transform="translate(1259.623047 0)"/>
     <use xlink:href="#DejaVuSans-73" transform="translate(1320.804688 0)"/>
     <use xlink:href="#DejaVuSans-73" transform="translate(1372.904297 0)"/>
     <use xlink:href="#DejaVuSans-20" transform="translate(1425.003906 0)"/>
     <use xlink:href="#DejaVuSans-4f" transform="translate(1456.791016 0)"/>
     <use xlink:href="#DejaVuSans-76" transform="translate(1535.501953 0)"/>
     <use xlink:href="#DejaVuSans-65" transform="translate(1594.681641 0)"/>
     <use xlink:href="#DejaVuSans-72" transform="translate(1656.205078 0)"/>
     <use xlink:href="#DejaVuSans-20" transform="translate(1697.318359 0)"/>
     <use xlink:href="#DejaVuSans-45" transform="translate(1729.105469 0)"/>
     <use xlink:href="#DejaVuSans-70" transform="translate(1792.289062 0)"/>
     <use xlink:href="#DejaVuSans-6f" transform="translate(1855.765625 0)"/>
     <use xlink:href="#DejaVuSans-63" transform="translate(1916.947266 0)"/>
     <use xlink:href="#DejaVuSans-68" transform="translate(1971.927734 0)"/>
     <use xlink:href="#DejaVuSans-73" transform="translate(2035.306641 0)"/>
     <use xlink:href="#DejaVuSans-20" transform="translate(2087.40625 0)"/>
     <use xlink:href="#DejaVuSans-66" transform="translate(2119.193359 0)"/>
     <use xlink:href="#DejaVuSans-6f" transform="translate(2154.398438 0)"/>
     <use xlink:href="#DejaVuSans-72" transform="translate(2215.580078 0)"/>
     <use xlink:href="#DejaVuSans-20" transform="translate(2256.693359 0)"/>
     <use xlink:href="#DejaVuSans-74" transform="translate(2288.480469 0)"/>
     <use xlink:href="#DejaVuSans-69" transform="translate(2327.689453 0)"/>
     <use xlink:href="#DejaVuSans-6d" transform="translate(2355.472656 0)"/>
     <use xlink:href="#DejaVuSans-6d" transform="translate(2452.884766 0)"/>
     <use xlink:href="#DejaVuSans-2f" transform="translate(2550.296875 0)"/>
     <use xlink:href="#DejaVuSans-72" transform="translate(2583.988281 0)"/>
     <use xlink:href="#DejaVuSans-65" transform="translate(2622.851562 0)"/>
     <use xlink:href="#DejaVuSans-73" transform="translate(2684.375 0)"/>
     <use xlink:href="#DejaVuSans-6e" transform="translate(2736.474609 0)"/>
     <use xlink:href="#DejaVuSans-65" transform="translate(2799.853516 0)"/>
     <use xlink:href="#DejaVuSans-74" transform="translate(2861.376953 0)"/>
     <use xlink:href="#DejaVuSans-35" transform="translate(2900.585938 0)"/>
     <use xlink:href="#DejaVuSans-30" transform="translate(2964.208984 0)"/>
     <use xlink:href="#DejaVuSans-2e" transform="translate(3027.832031 0)"/>
     <use xlink:href="#DejaVuSans-61" transform="translate(3059.619141 0)"/>
     <use xlink:href="#DejaVuSans-31" transform="translate(3120.898438 0)"/>
     <use xlink:href="#DejaVuSans-5f" transform="translate(3184.521484 0)"/>
     <use xlink:href="#DejaVuSans-69" transform="translate(3234.521484 0)"/>
     <use xlink:href="#DejaVuSans-6e" transform="translate(3262.304688 0)"/>
     <use xlink:href="#DejaVuSans-31" transform="translate(3325.683594 0)"/>
     <use xlink:href="#DejaVuSans-6b" transform="translate(3389.306641 0)"/>
    </g>
   </g>
   <g id="legend_1">
    <g id="patch_7">
     <path d="M 409.11375 89.32125 
L 556.8 89.32125 
Q 559.2 89.32125 559.2 86.92125 
L 559.2 35.28 
Q 559.2 32.88 556.8 32.88 
L 409.11375 32.88 
Q 406.71375 32.88 406.71375 35.28 
L 406.71375 86.92125 
Q 406.71375 89.32125 409.11375 89.32125 
z
" style="fill: #ffffff; opacity: 0.8; stroke: #cccccc; stroke-linejoin: miter"/>
    </g>
    <g id="line2d_30">
     <path d="M 411.51375 42.598125 
L 423.51375 42.598125 
L 435.51375 42.598125 
" style="fill: none; stroke: #0000ff; stroke-width: 1.5; stroke-linecap: square"/>
    </g>
    <g id="text_17">
     <!-- Training Loss -->
     <g transform="translate(445.11375 46.798125) scale(0.12 -0.12)">
      <use xlink:href="#DejaVuSans-54"/>
      <use xlink:href="#DejaVuSans-72" transform="translate(46.333984 0)"/>
      <use xlink:href="#DejaVuSans-61" transform="translate(87.447266 0)"/>
      <use xlink:href="#DejaVuSans-69" transform="translate(148.726562 0)"/>
      <use xlink:href="#DejaVuSans-6e" transform="translate(176.509766 0)"/>
      <use xlink:href="#DejaVuSans-69" transform="translate(239.888672 0)"/>
      <use xlink:href="#DejaVuSans-6e" transform="translate(267.671875 0)"/>
      <use xlink:href="#DejaVuSans-67" transform="translate(331.050781 0)"/>
      <use xlink:href="#DejaVuSans-20" transform="translate(394.527344 0)"/>
      <use xlink:href="#DejaVuSans-4c" transform="translate(426.314453 0)"/>
      <use xlink:href="#DejaVuSans-6f" transform="translate(480.277344 0)"/>
      <use xlink:href="#DejaVuSans-73" transform="translate(541.458984 0)"/>
      <use xlink:href="#DejaVuSans-73" transform="translate(593.558594 0)"/>
     </g>
    </g>
    <g id="line2d_31">
     <path d="M 411.51375 60.211875 
L 423.51375 60.211875 
L 435.51375 60.211875 
" style="fill: none; stroke: #ffa500; stroke-width: 1.5; stroke-linecap: square"/>
    </g>
    <g id="text_18">
     <!-- Evaluation Loss -->
     <g transform="translate(445.11375 64.411875) scale(0.12 -0.12)">
      <use xlink:href="#DejaVuSans-45"/>
      <use xlink:href="#DejaVuSans-76" transform="translate(63.183594 0)"/>
      <use xlink:href="#DejaVuSans-61" transform="translate(122.363281 0)"/>
      <use xlink:href="#DejaVuSans-6c" transform="translate(183.642578 0)"/>
      <use xlink:href="#DejaVuSans-75" transform="translate(211.425781 0)"/>
      <use xlink:href="#DejaVuSans-61" transform="translate(274.804688 0)"/>
      <use xlink:href="#DejaVuSans-74" transform="translate(336.083984 0)"/>
      <use xlink:href="#DejaVuSans-69" transform="translate(375.292969 0)"/>
      <use xlink:href="#DejaVuSans-6f" transform="translate(403.076172 0)"/>
      <use xlink:href="#DejaVuSans-6e" transform="translate(464.257812 0)"/>
      <use xlink:href="#DejaVuSans-20" transform="translate(527.636719 0)"/>
      <use xlink:href="#DejaVuSans-4c" transform="translate(559.423828 0)"/>
      <use xlink:href="#DejaVuSans-6f" transform="translate(613.386719 0)"/>
      <use xlink:href="#DejaVuSans-73" transform="translate(674.568359 0)"/>
      <use xlink:href="#DejaVuSans-73" transform="translate(726.667969 0)"/>
     </g>
    </g>
    <g id="line2d_32">
     <path d="M 411.51375 77.825625 
L 423.51375 77.825625 
L 435.51375 77.825625 
" style="fill: none; stroke-dasharray: 5.55,2.4; stroke-dashoffset: 0; stroke: #ff0000; stroke-width: 1.5"/>
    </g>
    <g id="text_19">
     <!-- Training Restarted -->
     <g transform="translate(445.11375 82.025625) scale(0.12 -0.12)">
      <defs>
       <path id="DejaVuSans-52" d="M 2841 2188 
Q 3044 2119 3236 1894 
Q 3428 1669 3622 1275 
L 4263 0 
L 3584 0 
L 2988 1197 
Q 2756 1666 2539 1819 
Q 2322 1972 1947 1972 
L 1259 1972 
L 1259 0 
L 628 0 
L 628 4666 
L 2053 4666 
Q 2853 4666 3247 4331 
Q 3641 3997 3641 3322 
Q 3641 2881 3436 2590 
Q 3231 2300 2841 2188 
z
M 1259 4147 
L 1259 2491 
L 2053 2491 
Q 2509 2491 2742 2702 
Q 2975 2913 2975 3322 
Q 2975 3731 2742 3939 
Q 2509 4147 2053 4147 
L 1259 4147 
z
" transform="scale(0.015625)"/>
      </defs>
      <use xlink:href="#DejaVuSans-54"/>
      <use xlink:href="#DejaVuSans-72" transform="translate(46.333984 0)"/>
      <use xlink:href="#DejaVuSans-61" transform="translate(87.447266 0)"/>
      <use xlink:href="#DejaVuSans-69" transform="translate(148.726562 0)"/>
      <use xlink:href="#DejaVuSans-6e" transform="translate(176.509766 0)"/>
      <use xlink:href="#DejaVuSans-69" transform="translate(239.888672 0)"/>
      <use xlink:href="#DejaVuSans-6e" transform="translate(267.671875 0)"/>
      <use xlink:href="#DejaVuSans-67" transform="translate(331.050781 0)"/>
      <use xlink:href="#DejaVuSans-20" transform="translate(394.527344 0)"/>
      <use xlink:href="#DejaVuSans-52" transform="translate(426.314453 0)"/>
      <use xlink:href="#DejaVuSans-65" transform="translate(491.296875 0)"/>
      <use xlink:href="#DejaVuSans-73" transform="translate(552.820312 0)"/>
      <use xlink:href="#DejaVuSans-74" transform="translate(604.919922 0)"/>
      <use xlink:href="#DejaVuSans-61" transform="translate(644.128906 0)"/>
      <use xlink:href="#DejaVuSans-72" transform="translate(705.408203 0)"/>
      <use xlink:href="#DejaVuSans-74" transform="translate(746.521484 0)"/>
      <use xlink:href="#DejaVuSans-65" transform="translate(785.730469 0)"/>
      <use xlink:href="#DejaVuSans-64" transform="translate(847.253906 0)"/>
     </g>
    </g>
   </g>
  </g>
 </g>
 <defs>
  <clipPath id="paa019812bf">
   <rect x="51.32" y="26.88" width="513.88" height="359.56"/>
  </clipPath>
 </defs>
</svg>
