<?xml version="1.0" encoding="utf-8" standalone="no"?>
<!DOCTYPE svg PUBLIC "-//W3C//DTD SVG 1.1//EN"
  "http://www.w3.org/Graphics/SVG/1.1/DTD/svg11.dtd">
<svg xmlns:xlink="http://www.w3.org/1999/xlink" width="576pt" height="432pt" viewBox="0 0 576 432" xmlns="http://www.w3.org/2000/svg" version="1.1">
 <metadata>
  <rdf:RDF xmlns:dc="http://purl.org/dc/elements/1.1/" xmlns:cc="http://creativecommons.org/ns#" xmlns:rdf="http://www.w3.org/1999/02/22-rdf-syntax-ns#">
   <cc:Work>
    <dc:type rdf:resource="http://purl.org/dc/dcmitype/StillImage"/>
    <dc:date>2025-05-06T22:15:20.106174</dc:date>
    <dc:format>image/svg+xml</dc:format>
    <dc:creator>
     <cc:Agent>
      <dc:title>Matplotlib v3.10.1, https://matplotlib.org/</dc:title>
     </cc:Agent>
    </dc:creator>
   </cc:Work>
  </rdf:RDF>
 </metadata>
 <defs>
  <style type="text/css">*{stroke-linejoin: round; stroke-linecap: butt}</style>
 </defs>
 <g id="figure_1">
  <g id="patch_1">
   <path d="M 0 432 
L 576 432 
L 576 0 
L 0 0 
z
" style="fill: #ffffff"/>
  </g>
  <g id="axes_1">
   <g id="patch_2">
    <path d="M 51.32 386.44 
L 565.2 386.44 
L 565.2 26.88 
L 51.32 26.88 
z
" style="fill: #ffffff"/>
   </g>
   <g id="matplotlib.axis_1">
    <g id="xtick_1">
     <g id="line2d_1">
      <path d="M 51.32 386.44 
L 51.32 26.88 
" clip-path="url(#p01234a2180)" style="fill: none; stroke: #b0b0b0; stroke-width: 0.8; stroke-linecap: square"/>
     </g>
     <g id="line2d_2">
      <defs>
       <path id="m4cf9479b4c" d="M 0 0 
L 0 3.5 
" style="stroke: #000000; stroke-width: 0.8"/>
      </defs>
      <g>
       <use xlink:href="#m4cf9479b4c" x="51.32" y="386.44" style="stroke: #000000; stroke-width: 0.8"/>
      </g>
     </g>
     <g id="text_1">
      <!-- 0 -->
      <g transform="translate(48.13875 401.038437) scale(0.1 -0.1)">
       <defs>
        <path id="DejaVuSans-30" d="M 2034 4250 
Q 1547 4250 1301 3770 
Q 1056 3291 1056 2328 
Q 1056 1369 1301 889 
Q 1547 409 2034 409 
Q 2525 409 2770 889 
Q 3016 1369 3016 2328 
Q 3016 3291 2770 3770 
Q 2525 4250 2034 4250 
z
M 2034 4750 
Q 2819 4750 3233 4129 
Q 3647 3509 3647 2328 
Q 3647 1150 3233 529 
Q 2819 -91 2034 -91 
Q 1250 -91 836 529 
Q 422 1150 422 2328 
Q 422 3509 836 4129 
Q 1250 4750 2034 4750 
z
" transform="scale(0.015625)"/>
       </defs>
       <use xlink:href="#DejaVuSans-30"/>
      </g>
     </g>
    </g>
    <g id="xtick_2">
     <g id="line2d_3">
      <path d="M 115.587134 386.44 
L 115.587134 26.88 
" clip-path="url(#p01234a2180)" style="fill: none; stroke: #b0b0b0; stroke-width: 0.8; stroke-linecap: square"/>
     </g>
     <g id="line2d_4">
      <g>
       <use xlink:href="#m4cf9479b4c" x="115.587134" y="386.44" style="stroke: #000000; stroke-width: 0.8"/>
      </g>
     </g>
     <g id="text_2">
      <!-- 2 -->
      <g transform="translate(112.405884 401.038437) scale(0.1 -0.1)">
       <defs>
        <path id="DejaVuSans-32" d="M 1228 531 
L 3431 531 
L 3431 0 
L 469 0 
L 469 531 
Q 828 903 1448 1529 
Q 2069 2156 2228 2338 
Q 2531 2678 2651 2914 
Q 2772 3150 2772 3378 
Q 2772 3750 2511 3984 
Q 2250 4219 1831 4219 
Q 1534 4219 1204 4116 
Q 875 4013 500 3803 
L 500 4441 
Q 881 4594 1212 4672 
Q 1544 4750 1819 4750 
Q 2544 4750 2975 4387 
Q 3406 4025 3406 3419 
Q 3406 3131 3298 2873 
Q 3191 2616 2906 2266 
Q 2828 2175 2409 1742 
Q 1991 1309 1228 531 
z
" transform="scale(0.015625)"/>
       </defs>
       <use xlink:href="#DejaVuSans-32"/>
      </g>
     </g>
    </g>
    <g id="xtick_3">
     <g id="line2d_5">
      <path d="M 179.854267 386.44 
L 179.854267 26.88 
" clip-path="url(#p01234a2180)" style="fill: none; stroke: #b0b0b0; stroke-width: 0.8; stroke-linecap: square"/>
     </g>
     <g id="line2d_6">
      <g>
       <use xlink:href="#m4cf9479b4c" x="179.854267" y="386.44" style="stroke: #000000; stroke-width: 0.8"/>
      </g>
     </g>
     <g id="text_3">
      <!-- 4 -->
      <g transform="translate(176.673017 401.038437) scale(0.1 -0.1)">
       <defs>
        <path id="DejaVuSans-34" d="M 2419 4116 
L 825 1625 
L 2419 1625 
L 2419 4116 
z
M 2253 4666 
L 3047 4666 
L 3047 1625 
L 3713 1625 
L 3713 1100 
L 3047 1100 
L 3047 0 
L 2419 0 
L 2419 1100 
L 313 1100 
L 313 1709 
L 2253 4666 
z
" transform="scale(0.015625)"/>
       </defs>
       <use xlink:href="#DejaVuSans-34"/>
      </g>
     </g>
    </g>
    <g id="xtick_4">
     <g id="line2d_7">
      <path d="M 244.121401 386.44 
L 244.121401 26.88 
" clip-path="url(#p01234a2180)" style="fill: none; stroke: #b0b0b0; stroke-width: 0.8; stroke-linecap: square"/>
     </g>
     <g id="line2d_8">
      <g>
       <use xlink:href="#m4cf9479b4c" x="244.121401" y="386.44" style="stroke: #000000; stroke-width: 0.8"/>
      </g>
     </g>
     <g id="text_4">
      <!-- 6 -->
      <g transform="translate(240.940151 401.038437) scale(0.1 -0.1)">
       <defs>
        <path id="DejaVuSans-36" d="M 2113 2584 
Q 1688 2584 1439 2293 
Q 1191 2003 1191 1497 
Q 1191 994 1439 701 
Q 1688 409 2113 409 
Q 2538 409 2786 701 
Q 3034 994 3034 1497 
Q 3034 2003 2786 2293 
Q 2538 2584 2113 2584 
z
M 3366 4563 
L 3366 3988 
Q 3128 4100 2886 4159 
Q 2644 4219 2406 4219 
Q 1781 4219 1451 3797 
Q 1122 3375 1075 2522 
Q 1259 2794 1537 2939 
Q 1816 3084 2150 3084 
Q 2853 3084 3261 2657 
Q 3669 2231 3669 1497 
Q 3669 778 3244 343 
Q 2819 -91 2113 -91 
Q 1303 -91 875 529 
Q 447 1150 447 2328 
Q 447 3434 972 4092 
Q 1497 4750 2381 4750 
Q 2619 4750 2861 4703 
Q 3103 4656 3366 4563 
z
" transform="scale(0.015625)"/>
       </defs>
       <use xlink:href="#DejaVuSans-36"/>
      </g>
     </g>
    </g>
    <g id="xtick_5">
     <g id="line2d_9">
      <path d="M 308.388534 386.44 
L 308.388534 26.88 
" clip-path="url(#p01234a2180)" style="fill: none; stroke: #b0b0b0; stroke-width: 0.8; stroke-linecap: square"/>
     </g>
     <g id="line2d_10">
      <g>
       <use xlink:href="#m4cf9479b4c" x="308.388534" y="386.44" style="stroke: #000000; stroke-width: 0.8"/>
      </g>
     </g>
     <g id="text_5">
      <!-- 8 -->
      <g transform="translate(305.207284 401.038437) scale(0.1 -0.1)">
       <defs>
        <path id="DejaVuSans-38" d="M 2034 2216 
Q 1584 2216 1326 1975 
Q 1069 1734 1069 1313 
Q 1069 891 1326 650 
Q 1584 409 2034 409 
Q 2484 409 2743 651 
Q 3003 894 3003 1313 
Q 3003 1734 2745 1975 
Q 2488 2216 2034 2216 
z
M 1403 2484 
Q 997 2584 770 2862 
Q 544 3141 544 3541 
Q 544 4100 942 4425 
Q 1341 4750 2034 4750 
Q 2731 4750 3128 4425 
Q 3525 4100 3525 3541 
Q 3525 3141 3298 2862 
Q 3072 2584 2669 2484 
Q 3125 2378 3379 2068 
Q 3634 1759 3634 1313 
Q 3634 634 3220 271 
Q 2806 -91 2034 -91 
Q 1263 -91 848 271 
Q 434 634 434 1313 
Q 434 1759 690 2068 
Q 947 2378 1403 2484 
z
M 1172 3481 
Q 1172 3119 1398 2916 
Q 1625 2713 2034 2713 
Q 2441 2713 2670 2916 
Q 2900 3119 2900 3481 
Q 2900 3844 2670 4047 
Q 2441 4250 2034 4250 
Q 1625 4250 1398 4047 
Q 1172 3844 1172 3481 
z
" transform="scale(0.015625)"/>
       </defs>
       <use xlink:href="#DejaVuSans-38"/>
      </g>
     </g>
    </g>
    <g id="xtick_6">
     <g id="line2d_11">
      <path d="M 372.655668 386.44 
L 372.655668 26.88 
" clip-path="url(#p01234a2180)" style="fill: none; stroke: #b0b0b0; stroke-width: 0.8; stroke-linecap: square"/>
     </g>
     <g id="line2d_12">
      <g>
       <use xlink:href="#m4cf9479b4c" x="372.655668" y="386.44" style="stroke: #000000; stroke-width: 0.8"/>
      </g>
     </g>
     <g id="text_6">
      <!-- 10 -->
      <g transform="translate(366.293168 401.038437) scale(0.1 -0.1)">
       <defs>
        <path id="DejaVuSans-31" d="M 794 531 
L 1825 531 
L 1825 4091 
L 703 3866 
L 703 4441 
L 1819 4666 
L 2450 4666 
L 2450 531 
L 3481 531 
L 3481 0 
L 794 0 
L 794 531 
z
" transform="scale(0.015625)"/>
       </defs>
       <use xlink:href="#DejaVuSans-31"/>
       <use xlink:href="#DejaVuSans-30" transform="translate(63.623047 0)"/>
      </g>
     </g>
    </g>
    <g id="xtick_7">
     <g id="line2d_13">
      <path d="M 436.922801 386.44 
L 436.922801 26.88 
" clip-path="url(#p01234a2180)" style="fill: none; stroke: #b0b0b0; stroke-width: 0.8; stroke-linecap: square"/>
     </g>
     <g id="line2d_14">
      <g>
       <use xlink:href="#m4cf9479b4c" x="436.922801" y="386.44" style="stroke: #000000; stroke-width: 0.8"/>
      </g>
     </g>
     <g id="text_7">
      <!-- 12 -->
      <g transform="translate(430.560301 401.038437) scale(0.1 -0.1)">
       <use xlink:href="#DejaVuSans-31"/>
       <use xlink:href="#DejaVuSans-32" transform="translate(63.623047 0)"/>
      </g>
     </g>
    </g>
    <g id="xtick_8">
     <g id="line2d_15">
      <path d="M 501.189935 386.44 
L 501.189935 26.88 
" clip-path="url(#p01234a2180)" style="fill: none; stroke: #b0b0b0; stroke-width: 0.8; stroke-linecap: square"/>
     </g>
     <g id="line2d_16">
      <g>
       <use xlink:href="#m4cf9479b4c" x="501.189935" y="386.44" style="stroke: #000000; stroke-width: 0.8"/>
      </g>
     </g>
     <g id="text_8">
      <!-- 14 -->
      <g transform="translate(494.827435 401.038437) scale(0.1 -0.1)">
       <use xlink:href="#DejaVuSans-31"/>
       <use xlink:href="#DejaVuSans-34" transform="translate(63.623047 0)"/>
      </g>
     </g>
    </g>
    <g id="text_9">
     <!-- Epoch -->
     <g transform="translate(286.824687 417.755938) scale(0.14 -0.14)">
      <defs>
       <path id="DejaVuSans-45" d="M 628 4666 
L 3578 4666 
L 3578 4134 
L 1259 4134 
L 1259 2753 
L 3481 2753 
L 3481 2222 
L 1259 2222 
L 1259 531 
L 3634 531 
L 3634 0 
L 628 0 
L 628 4666 
z
" transform="scale(0.015625)"/>
       <path id="DejaVuSans-70" d="M 1159 525 
L 1159 -1331 
L 581 -1331 
L 581 3500 
L 1159 3500 
L 1159 2969 
Q 1341 3281 1617 3432 
Q 1894 3584 2278 3584 
Q 2916 3584 3314 3078 
Q 3713 2572 3713 1747 
Q 3713 922 3314 415 
Q 2916 -91 2278 -91 
Q 1894 -91 1617 61 
Q 1341 213 1159 525 
z
M 3116 1747 
Q 3116 2381 2855 2742 
Q 2594 3103 2138 3103 
Q 1681 3103 1420 2742 
Q 1159 2381 1159 1747 
Q 1159 1113 1420 752 
Q 1681 391 2138 391 
Q 2594 391 2855 752 
Q 3116 1113 3116 1747 
z
" transform="scale(0.015625)"/>
       <path id="DejaVuSans-6f" d="M 1959 3097 
Q 1497 3097 1228 2736 
Q 959 2375 959 1747 
Q 959 1119 1226 758 
Q 1494 397 1959 397 
Q 2419 397 2687 759 
Q 2956 1122 2956 1747 
Q 2956 2369 2687 2733 
Q 2419 3097 1959 3097 
z
M 1959 3584 
Q 2709 3584 3137 3096 
Q 3566 2609 3566 1747 
Q 3566 888 3137 398 
Q 2709 -91 1959 -91 
Q 1206 -91 779 398 
Q 353 888 353 1747 
Q 353 2609 779 3096 
Q 1206 3584 1959 3584 
z
" transform="scale(0.015625)"/>
       <path id="DejaVuSans-63" d="M 3122 3366 
L 3122 2828 
Q 2878 2963 2633 3030 
Q 2388 3097 2138 3097 
Q 1578 3097 1268 2742 
Q 959 2388 959 1747 
Q 959 1106 1268 751 
Q 1578 397 2138 397 
Q 2388 397 2633 464 
Q 2878 531 3122 666 
L 3122 134 
Q 2881 22 2623 -34 
Q 2366 -91 2075 -91 
Q 1284 -91 818 406 
Q 353 903 353 1747 
Q 353 2603 823 3093 
Q 1294 3584 2113 3584 
Q 2378 3584 2631 3529 
Q 2884 3475 3122 3366 
z
" transform="scale(0.015625)"/>
       <path id="DejaVuSans-68" d="M 3513 2113 
L 3513 0 
L 2938 0 
L 2938 2094 
Q 2938 2591 2744 2837 
Q 2550 3084 2163 3084 
Q 1697 3084 1428 2787 
Q 1159 2491 1159 1978 
L 1159 0 
L 581 0 
L 581 4863 
L 1159 4863 
L 1159 2956 
Q 1366 3272 1645 3428 
Q 1925 3584 2291 3584 
Q 2894 3584 3203 3211 
Q 3513 2838 3513 2113 
z
" transform="scale(0.015625)"/>
      </defs>
      <use xlink:href="#DejaVuSans-45"/>
      <use xlink:href="#DejaVuSans-70" transform="translate(63.183594 0)"/>
      <use xlink:href="#DejaVuSans-6f" transform="translate(126.660156 0)"/>
      <use xlink:href="#DejaVuSans-63" transform="translate(187.841797 0)"/>
      <use xlink:href="#DejaVuSans-68" transform="translate(242.822266 0)"/>
     </g>
    </g>
   </g>
   <g id="matplotlib.axis_2">
    <g id="ytick_1">
     <g id="line2d_17">
      <path d="M 51.32 380.545522 
L 565.2 380.545522 
" clip-path="url(#p01234a2180)" style="fill: none; stroke: #b0b0b0; stroke-width: 0.8; stroke-linecap: square"/>
     </g>
     <g id="line2d_18">
      <defs>
       <path id="me2372368df" d="M 0 0 
L -3.5 0 
" style="stroke: #000000; stroke-width: 0.8"/>
      </defs>
      <g>
       <use xlink:href="#me2372368df" x="51.32" y="380.545522" style="stroke: #000000; stroke-width: 0.8"/>
      </g>
     </g>
     <g id="text_10">
      <!-- 0.1 -->
      <g transform="translate(28.416875 384.34474) scale(0.1 -0.1)">
       <defs>
        <path id="DejaVuSans-2e" d="M 684 794 
L 1344 794 
L 1344 0 
L 684 0 
L 684 794 
z
" transform="scale(0.015625)"/>
       </defs>
       <use xlink:href="#DejaVuSans-30"/>
       <use xlink:href="#DejaVuSans-2e" transform="translate(63.623047 0)"/>
       <use xlink:href="#DejaVuSans-31" transform="translate(95.410156 0)"/>
      </g>
     </g>
    </g>
    <g id="ytick_2">
     <g id="line2d_19">
      <path d="M 51.32 335.932233 
L 565.2 335.932233 
" clip-path="url(#p01234a2180)" style="fill: none; stroke: #b0b0b0; stroke-width: 0.8; stroke-linecap: square"/>
     </g>
     <g id="line2d_20">
      <g>
       <use xlink:href="#me2372368df" x="51.32" y="335.932233" style="stroke: #000000; stroke-width: 0.8"/>
      </g>
     </g>
     <g id="text_11">
      <!-- 0.2 -->
      <g transform="translate(28.416875 339.731451) scale(0.1 -0.1)">
       <use xlink:href="#DejaVuSans-30"/>
       <use xlink:href="#DejaVuSans-2e" transform="translate(63.623047 0)"/>
       <use xlink:href="#DejaVuSans-32" transform="translate(95.410156 0)"/>
      </g>
     </g>
    </g>
    <g id="ytick_3">
     <g id="line2d_21">
      <path d="M 51.32 291.318944 
L 565.2 291.318944 
" clip-path="url(#p01234a2180)" style="fill: none; stroke: #b0b0b0; stroke-width: 0.8; stroke-linecap: square"/>
     </g>
     <g id="line2d_22">
      <g>
       <use xlink:href="#me2372368df" x="51.32" y="291.318944" style="stroke: #000000; stroke-width: 0.8"/>
      </g>
     </g>
     <g id="text_12">
      <!-- 0.3 -->
      <g transform="translate(28.416875 295.118163) scale(0.1 -0.1)">
       <defs>
        <path id="DejaVuSans-33" d="M 2597 2516 
Q 3050 2419 3304 2112 
Q 3559 1806 3559 1356 
Q 3559 666 3084 287 
Q 2609 -91 1734 -91 
Q 1441 -91 1130 -33 
Q 819 25 488 141 
L 488 750 
Q 750 597 1062 519 
Q 1375 441 1716 441 
Q 2309 441 2620 675 
Q 2931 909 2931 1356 
Q 2931 1769 2642 2001 
Q 2353 2234 1838 2234 
L 1294 2234 
L 1294 2753 
L 1863 2753 
Q 2328 2753 2575 2939 
Q 2822 3125 2822 3475 
Q 2822 3834 2567 4026 
Q 2313 4219 1838 4219 
Q 1578 4219 1281 4162 
Q 984 4106 628 3988 
L 628 4550 
Q 988 4650 1302 4700 
Q 1616 4750 1894 4750 
Q 2613 4750 3031 4423 
Q 3450 4097 3450 3541 
Q 3450 3153 3228 2886 
Q 3006 2619 2597 2516 
z
" transform="scale(0.015625)"/>
       </defs>
       <use xlink:href="#DejaVuSans-30"/>
       <use xlink:href="#DejaVuSans-2e" transform="translate(63.623047 0)"/>
       <use xlink:href="#DejaVuSans-33" transform="translate(95.410156 0)"/>
      </g>
     </g>
    </g>
    <g id="ytick_4">
     <g id="line2d_23">
      <path d="M 51.32 246.705655 
L 565.2 246.705655 
" clip-path="url(#p01234a2180)" style="fill: none; stroke: #b0b0b0; stroke-width: 0.8; stroke-linecap: square"/>
     </g>
     <g id="line2d_24">
      <g>
       <use xlink:href="#me2372368df" x="51.32" y="246.705655" style="stroke: #000000; stroke-width: 0.8"/>
      </g>
     </g>
     <g id="text_13">
      <!-- 0.4 -->
      <g transform="translate(28.416875 250.504874) scale(0.1 -0.1)">
       <use xlink:href="#DejaVuSans-30"/>
       <use xlink:href="#DejaVuSans-2e" transform="translate(63.623047 0)"/>
       <use xlink:href="#DejaVuSans-34" transform="translate(95.410156 0)"/>
      </g>
     </g>
    </g>
    <g id="ytick_5">
     <g id="line2d_25">
      <path d="M 51.32 202.092366 
L 565.2 202.092366 
" clip-path="url(#p01234a2180)" style="fill: none; stroke: #b0b0b0; stroke-width: 0.8; stroke-linecap: square"/>
     </g>
     <g id="line2d_26">
      <g>
       <use xlink:href="#me2372368df" x="51.32" y="202.092366" style="stroke: #000000; stroke-width: 0.8"/>
      </g>
     </g>
     <g id="text_14">
      <!-- 0.5 -->
      <g transform="translate(28.416875 205.891585) scale(0.1 -0.1)">
       <defs>
        <path id="DejaVuSans-35" d="M 691 4666 
L 3169 4666 
L 3169 4134 
L 1269 4134 
L 1269 2991 
Q 1406 3038 1543 3061 
Q 1681 3084 1819 3084 
Q 2600 3084 3056 2656 
Q 3513 2228 3513 1497 
Q 3513 744 3044 326 
Q 2575 -91 1722 -91 
Q 1428 -91 1123 -41 
Q 819 9 494 109 
L 494 744 
Q 775 591 1075 516 
Q 1375 441 1709 441 
Q 2250 441 2565 725 
Q 2881 1009 2881 1497 
Q 2881 1984 2565 2268 
Q 2250 2553 1709 2553 
Q 1456 2553 1204 2497 
Q 953 2441 691 2322 
L 691 4666 
z
" transform="scale(0.015625)"/>
       </defs>
       <use xlink:href="#DejaVuSans-30"/>
       <use xlink:href="#DejaVuSans-2e" transform="translate(63.623047 0)"/>
       <use xlink:href="#DejaVuSans-35" transform="translate(95.410156 0)"/>
      </g>
     </g>
    </g>
    <g id="ytick_6">
     <g id="line2d_27">
      <path d="M 51.32 157.479077 
L 565.2 157.479077 
" clip-path="url(#p01234a2180)" style="fill: none; stroke: #b0b0b0; stroke-width: 0.8; stroke-linecap: square"/>
     </g>
     <g id="line2d_28">
      <g>
       <use xlink:href="#me2372368df" x="51.32" y="157.479077" style="stroke: #000000; stroke-width: 0.8"/>
      </g>
     </g>
     <g id="text_15">
      <!-- 0.6 -->
      <g transform="translate(28.416875 161.278296) scale(0.1 -0.1)">
       <use xlink:href="#DejaVuSans-30"/>
       <use xlink:href="#DejaVuSans-2e" transform="translate(63.623047 0)"/>
       <use xlink:href="#DejaVuSans-36" transform="translate(95.410156 0)"/>
      </g>
     </g>
    </g>
    <g id="ytick_7">
     <g id="line2d_29">
      <path d="M 51.32 112.865788 
L 565.2 112.865788 
" clip-path="url(#p01234a2180)" style="fill: none; stroke: #b0b0b0; stroke-width: 0.8; stroke-linecap: square"/>
     </g>
     <g id="line2d_30">
      <g>
       <use xlink:href="#me2372368df" x="51.32" y="112.865788" style="stroke: #000000; stroke-width: 0.8"/>
      </g>
     </g>
     <g id="text_16">
      <!-- 0.7 -->
      <g transform="translate(28.416875 116.665007) scale(0.1 -0.1)">
       <defs>
        <path id="DejaVuSans-37" d="M 525 4666 
L 3525 4666 
L 3525 4397 
L 1831 0 
L 1172 0 
L 2766 4134 
L 525 4134 
L 525 4666 
z
" transform="scale(0.015625)"/>
       </defs>
       <use xlink:href="#DejaVuSans-30"/>
       <use xlink:href="#DejaVuSans-2e" transform="translate(63.623047 0)"/>
       <use xlink:href="#DejaVuSans-37" transform="translate(95.410156 0)"/>
      </g>
     </g>
    </g>
    <g id="ytick_8">
     <g id="line2d_31">
      <path d="M 51.32 68.252499 
L 565.2 68.252499 
" clip-path="url(#p01234a2180)" style="fill: none; stroke: #b0b0b0; stroke-width: 0.8; stroke-linecap: square"/>
     </g>
     <g id="line2d_32">
      <g>
       <use xlink:href="#me2372368df" x="51.32" y="68.252499" style="stroke: #000000; stroke-width: 0.8"/>
      </g>
     </g>
     <g id="text_17">
      <!-- 0.8 -->
      <g transform="translate(28.416875 72.051718) scale(0.1 -0.1)">
       <use xlink:href="#DejaVuSans-30"/>
       <use xlink:href="#DejaVuSans-2e" transform="translate(63.623047 0)"/>
       <use xlink:href="#DejaVuSans-38" transform="translate(95.410156 0)"/>
      </g>
     </g>
    </g>
    <g id="text_18">
     <!-- Loss -->
     <g transform="translate(21.505313 222.014062) rotate(-90) scale(0.14 -0.14)">
      <defs>
       <path id="DejaVuSans-4c" d="M 628 4666 
L 1259 4666 
L 1259 531 
L 3531 531 
L 3531 0 
L 628 0 
L 628 4666 
z
" transform="scale(0.015625)"/>
       <path id="DejaVuSans-73" d="M 2834 3397 
L 2834 2853 
Q 2591 2978 2328 3040 
Q 2066 3103 1784 3103 
Q 1356 3103 1142 2972 
Q 928 2841 928 2578 
Q 928 2378 1081 2264 
Q 1234 2150 1697 2047 
L 1894 2003 
Q 2506 1872 2764 1633 
Q 3022 1394 3022 966 
Q 3022 478 2636 193 
Q 2250 -91 1575 -91 
Q 1294 -91 989 -36 
Q 684 19 347 128 
L 347 722 
Q 666 556 975 473 
Q 1284 391 1588 391 
Q 1994 391 2212 530 
Q 2431 669 2431 922 
Q 2431 1156 2273 1281 
Q 2116 1406 1581 1522 
L 1381 1569 
Q 847 1681 609 1914 
Q 372 2147 372 2553 
Q 372 3047 722 3315 
Q 1072 3584 1716 3584 
Q 2034 3584 2315 3537 
Q 2597 3491 2834 3397 
z
" transform="scale(0.015625)"/>
      </defs>
      <use xlink:href="#DejaVuSans-4c"/>
      <use xlink:href="#DejaVuSans-6f" transform="translate(53.962891 0)"/>
      <use xlink:href="#DejaVuSans-73" transform="translate(115.144531 0)"/>
      <use xlink:href="#DejaVuSans-73" transform="translate(167.244141 0)"/>
     </g>
    </g>
   </g>
   <g id="line2d_33">
    <path d="M 51.32 43.223636 
L 52.348274 111.552355 
L 53.376548 163.646534 
L 54.404822 193.338228 
L 55.433097 198.762939 
L 56.461371 199.58688 
L 57.489645 215.670366 
L 58.517919 223.775789 
L 59.546193 226.926759 
L 60.574467 241.089654 
L 61.602741 235.939222 
L 62.631016 242.266744 
L 63.65929 236.010501 
L 64.687564 246.465278 
L 65.715838 242.969799 
L 66.744112 250.105986 
L 67.772386 251.92501 
L 68.80066 258.324117 
L 69.828934 259.421725 
L 70.857209 256.687272 
L 72.913757 272.422115 
L 73.942031 273.199108 
L 74.970305 263.477382 
L 75.998579 272.231892 
L 77.026853 263.405039 
L 78.055128 269.857396 
L 79.083402 283.785806 
L 80.111676 272.677966 
L 81.13995 280.040434 
L 82.168224 277.185614 
L 83.196498 275.297956 
L 83.453567 277.697236 
L 84.481841 285.491644 
L 85.510115 287.554526 
L 86.538389 287.911306 
L 87.566663 282.471251 
L 88.594937 286.054933 
L 89.623212 286.785072 
L 90.651486 281.325898 
L 91.67976 281.416389 
L 92.708034 282.837922 
L 93.736308 287.985682 
L 94.764582 287.317622 
L 95.792856 288.345733 
L 96.821131 285.910222 
L 97.849405 298.112851 
L 98.877679 291.361658 
L 99.905953 299.059778 
L 100.934227 289.609445 
L 101.962501 293.183554 
L 102.990775 288.342542 
L 104.01905 298.547491 
L 105.047324 304.18076 
L 106.075598 294.13923 
L 107.103872 295.228195 
L 108.132146 299.2502 
L 109.16042 291.79881 
L 110.188694 298.151342 
L 111.216968 293.724254 
L 112.245243 294.445884 
L 113.273517 292.162796 
L 114.301791 294.245928 
L 115.330065 304.721314 
L 115.587134 305.605631 
L 117.643682 289.002625 
L 118.671956 301.499982 
L 119.70023 292.354681 
L 120.728504 299.312903 
L 121.756778 298.812423 
L 122.785053 300.097461 
L 123.813327 295.511715 
L 124.841601 305.08643 
L 125.869875 304.590071 
L 126.898149 305.810479 
L 127.926423 303.6401 
L 128.954697 305.041357 
L 129.982971 294.87926 
L 131.011246 308.534229 
L 132.03952 301.030108 
L 133.067794 307.462162 
L 134.096068 303.315097 
L 135.124342 304.532367 
L 136.152616 306.137343 
L 137.18089 307.254416 
L 138.209165 307.052373 
L 139.237439 297.469069 
L 140.265713 311.110263 
L 141.293987 306.322606 
L 142.322261 307.260705 
L 143.350535 300.135554 
L 144.378809 298.923323 
L 145.407084 310.007589 
L 146.435358 305.628858 
L 147.463632 304.947675 
L 147.7207 308.786184 
L 148.748974 312.045569 
L 149.777249 308.898521 
L 150.805523 308.183725 
L 151.833797 312.63912 
L 152.862071 310.724339 
L 153.890345 312.756628 
L 154.918619 314.0417 
L 155.946893 316.70423 
L 156.975168 312.083648 
L 158.003442 312.37331 
L 159.031716 314.707221 
L 160.05999 309.315969 
L 161.088264 309.380413 
L 162.116538 308.446716 
L 163.144812 318.762825 
L 164.173087 313.758726 
L 165.201361 310.346619 
L 166.229635 311.638478 
L 167.257909 310.485653 
L 168.286183 316.717499 
L 169.314457 306.312834 
L 170.342731 311.791779 
L 171.371006 310.805231 
L 172.39928 316.597132 
L 173.427554 312.452979 
L 174.455828 309.853544 
L 175.484102 316.040092 
L 176.512376 317.706627 
L 177.54065 317.886938 
L 178.568924 311.178843 
L 179.597199 322.350815 
L 179.854267 311.54945 
L 180.882541 309.900173 
L 181.910815 311.364585 
L 182.93909 321.011157 
L 183.967364 310.115963 
L 184.995638 313.119843 
L 186.023912 314.996052 
L 187.052186 314.389206 
L 188.08046 310.109967 
L 189.108734 320.354498 
L 190.137009 313.29201 
L 191.165283 316.579176 
L 192.193557 314.292851 
L 193.221831 312.357528 
L 194.250105 311.411652 
L 195.278379 316.626609 
L 196.306653 315.177527 
L 197.334927 316.465411 
L 198.363202 315.125234 
L 199.391476 314.730562 
L 200.41975 316.82453 
L 201.448024 319.296551 
L 202.476298 317.528343 
L 203.504572 313.812082 
L 204.532846 317.971745 
L 205.561121 309.79003 
L 206.589395 314.770197 
L 207.617669 326.834862 
L 208.645943 315.74081 
L 209.674217 322.091421 
L 210.702491 315.384004 
L 211.730765 317.318974 
L 211.987834 314.540818 
L 213.016108 321.83178 
L 214.044382 320.676409 
L 215.072656 324.431507 
L 216.10093 320.422612 
L 217.129205 320.127299 
L 218.157479 322.361944 
L 219.185753 315.734076 
L 220.214027 317.037482 
L 221.242301 318.57568 
L 222.270575 321.0834 
L 223.298849 320.036595 
L 224.327124 324.912576 
L 225.355398 318.486186 
L 226.383672 325.140439 
L 227.411946 322.198079 
L 228.44022 325.217635 
L 229.468494 319.283687 
L 230.496768 322.386494 
L 231.525043 318.764261 
L 232.553317 322.868214 
L 233.581591 329.639936 
L 234.609865 322.451723 
L 236.666413 323.870192 
L 237.694687 318.469998 
L 238.722961 322.167858 
L 239.751236 320.249767 
L 240.77951 319.169403 
L 241.807784 316.469493 
L 242.836058 318.47035 
L 243.864332 326.216568 
L 244.121401 323.084676 
L 245.149675 319.73373 
L 246.177949 320.603781 
L 247.206223 322.434246 
L 248.234497 321.034418 
L 249.262771 319.269129 
L 250.291046 327.443643 
L 251.31932 326.728735 
L 252.347594 323.750576 
L 253.375868 321.535071 
L 254.404142 330.465804 
L 255.432416 323.949508 
L 256.46069 319.049994 
L 257.488964 321.381 
L 258.517239 328.098448 
L 259.545513 318.371702 
L 260.573787 325.441376 
L 261.602061 327.664074 
L 262.630335 323.547297 
L 263.658609 318.550251 
L 264.686883 318.403346 
L 265.715158 329.285709 
L 266.743432 320.263062 
L 267.771706 323.50138 
L 268.79998 327.405205 
L 269.828254 324.178475 
L 270.856528 322.882879 
L 271.884802 320.803444 
L 272.913077 325.861803 
L 273.941351 326.45296 
L 274.969625 322.382984 
L 275.997899 329.685521 
L 276.254967 323.357034 
L 277.283242 321.845375 
L 278.311516 323.199426 
L 279.33979 321.953663 
L 280.368064 325.838402 
L 281.396338 323.936571 
L 282.424612 326.119914 
L 283.452886 325.093685 
L 284.481161 324.288963 
L 285.509435 330.325215 
L 286.537709 321.255906 
L 287.565983 325.428971 
L 288.594257 322.779119 
L 289.622531 329.169105 
L 290.650805 321.550893 
L 291.67908 323.480765 
L 292.707354 324.236086 
L 293.735628 324.635365 
L 294.763902 325.934637 
L 295.792176 326.135856 
L 296.82045 327.822241 
L 297.848724 326.440097 
L 298.876998 323.717862 
L 300.933547 329.436085 
L 301.961821 329.126127 
L 302.990095 325.994847 
L 304.018369 329.388592 
L 305.046643 327.957506 
L 306.074917 331.057215 
L 307.103192 325.031055 
L 308.131466 328.525044 
L 308.388534 323.243594 
L 309.416808 326.012278 
L 310.445083 324.331709 
L 311.473357 327.623728 
L 312.501631 327.127403 
L 313.529905 327.749274 
L 314.558179 327.454293 
L 315.586453 327.634112 
L 316.614727 325.023157 
L 317.643002 328.009406 
L 318.671276 333.184981 
L 319.69955 324.921258 
L 320.727824 329.552038 
L 321.756098 333.224263 
L 322.784372 326.643303 
L 323.812646 327.353631 
L 324.84092 325.850415 
L 325.869195 327.504272 
L 326.897469 329.970343 
L 327.925743 330.541158 
L 328.954017 321.883122 
L 329.982291 326.314338 
L 331.010565 332.890752 
L 332.038839 325.004264 
L 333.067114 322.989339 
L 334.095388 326.777684 
L 335.123662 329.936632 
L 336.151936 330.494457 
L 338.208484 329.362499 
L 339.236758 328.23723 
L 340.265033 330.231247 
L 340.522101 332.922057 
L 341.550375 329.787745 
L 342.578649 326.047379 
L 343.606923 333.590144 
L 344.635198 327.691969 
L 345.663472 324.571186 
L 346.691746 332.318122 
L 347.72002 325.851 
L 348.748294 332.052585 
L 350.804842 330.942738 
L 351.833117 330.630885 
L 352.861391 327.267308 
L 353.889665 334.418505 
L 354.917939 330.552786 
L 355.946213 324.011573 
L 356.974487 330.955528 
L 358.002761 330.871419 
L 359.031036 323.971852 
L 360.05931 323.562301 
L 361.087584 330.45913 
L 362.115858 329.414984 
L 363.144132 330.927282 
L 364.172406 329.77671 
L 365.20068 334.223449 
L 366.228954 334.585653 
L 367.257229 327.353797 
L 368.285503 328.509301 
L 369.313777 331.125801 
L 370.342051 327.164824 
L 371.370325 335.19583 
L 372.398599 330.488327 
L 372.655668 327.125568 
L 373.683942 325.095047 
L 374.712216 329.667325 
L 375.74049 330.750461 
L 376.768764 335.035516 
L 377.797039 325.136311 
L 378.825313 330.309805 
L 379.853587 336.732047 
L 380.881861 324.448765 
L 381.910135 330.72357 
L 382.938409 332.136149 
L 383.966683 324.409902 
L 384.994957 336.167933 
L 386.023232 330.24078 
L 387.051506 329.665092 
L 388.07978 326.951819 
L 389.108054 332.151698 
L 390.136328 327.840882 
L 391.164602 335.378754 
L 393.221151 330.518828 
L 394.249425 328.06235 
L 395.277699 329.548986 
L 396.305973 329.685414 
L 397.334247 326.701665 
L 398.362521 331.627325 
L 399.390795 329.912726 
L 400.41907 332.296463 
L 401.447344 331.840284 
L 402.475618 334.955688 
L 403.503892 329.02817 
L 404.532166 332.197283 
L 404.789235 332.426748 
L 405.817509 332.250014 
L 406.845783 333.184383 
L 407.874057 328.560444 
L 408.902331 325.361449 
L 409.930605 330.524658 
L 410.958879 333.743963 
L 411.987154 332.680658 
L 413.015428 333.542066 
L 414.043702 331.461207 
L 415.071976 335.559052 
L 416.10025 331.446409 
L 417.128524 330.724115 
L 418.156798 333.299152 
L 419.185073 325.731065 
L 420.213347 333.927777 
L 421.241621 329.304596 
L 422.269895 329.62432 
L 423.298169 329.308412 
L 424.326443 332.798279 
L 425.354717 329.757345 
L 426.382991 331.573929 
L 427.411266 330.052491 
L 428.43954 334.967608 
L 429.467814 329.895674 
L 430.496088 333.703098 
L 431.524362 334.124355 
L 432.552636 333.968981 
L 433.58091 338.914592 
L 434.609185 336.472593 
L 436.665733 325.275737 
L 436.922801 329.343114 
L 437.951076 331.299265 
L 438.97935 327.023077 
L 440.007624 330.7648 
L 441.035898 328.693614 
L 442.064172 329.719624 
L 443.092446 338.260106 
L 444.12072 333.575718 
L 445.148994 329.956841 
L 446.177269 325.770234 
L 448.233817 335.357793 
L 449.262091 331.374938 
L 450.290365 334.412781 
L 451.318639 332.929682 
L 452.346913 332.782969 
L 453.375188 333.265899 
L 454.403462 330.683324 
L 455.431736 335.50779 
L 456.46001 328.496531 
L 457.488284 332.867889 
L 458.516558 330.599042 
L 459.544832 333.284899 
L 460.573107 332.959298 
L 461.601381 333.447992 
L 462.629655 332.05315 
L 463.657929 333.532467 
L 464.686203 333.105618 
L 465.714477 333.643353 
L 466.742751 330.485549 
L 467.771026 330.147849 
L 468.7993 339.879095 
L 469.056368 335.544785 
L 470.084642 336.947346 
L 471.112916 336.919251 
L 472.141191 334.485576 
L 473.169465 337.771113 
L 474.197739 332.702975 
L 475.226013 333.801367 
L 476.254287 333.479084 
L 477.282561 331.298008 
L 478.310835 337.116681 
L 479.33911 336.795594 
L 480.367384 335.492719 
L 481.395658 330.382958 
L 482.423932 327.77435 
L 483.452206 332.533839 
L 484.48048 327.155696 
L 485.508754 338.972448 
L 486.537029 335.612394 
L 487.565303 335.649343 
L 488.593577 332.702211 
L 489.621851 335.106775 
L 490.650125 335.742228 
L 491.678399 333.970257 
L 492.706673 337.355041 
L 493.734947 336.910596 
L 494.763222 339.839141 
L 495.791496 331.969745 
L 496.81977 339.269603 
L 497.848044 329.087496 
L 498.876318 328.169142 
L 499.904592 336.067297 
L 500.932866 335.349523 
L 501.189935 331.91839 
L 502.218209 335.46888 
L 503.246483 333.370796 
L 504.274757 334.570655 
L 505.303032 333.666196 
L 506.331306 335.261532 
L 507.35958 337.334572 
L 508.387854 329.731983 
L 509.416128 333.271191 
L 510.444402 325.01151 
L 511.472676 333.83948 
L 512.50095 330.359119 
L 513.529225 328.876611 
L 514.557499 331.263685 
L 515.585773 337.081879 
L 516.614047 337.375889 
L 517.642321 330.975233 
L 518.670595 335.159526 
L 519.698869 336.924683 
L 520.727144 340.727214 
L 521.755418 334.793466 
L 522.783692 340.119922 
L 523.811966 333.392448 
L 524.84024 332.865975 
L 525.868514 338.342493 
L 526.896788 334.389892 
L 528.953337 336.432772 
L 529.981611 330.006342 
L 531.009885 333.627246 
L 532.038159 337.699675 
L 533.066433 333.057155 
L 533.323502 333.667964 
L 534.351776 331.383121 
L 535.38005 333.585051 
L 536.408324 332.129002 
L 537.436598 333.835331 
L 538.464872 333.673601 
L 539.493147 336.583067 
L 540.521421 338.931437 
L 541.549695 340.713114 
L 542.577969 338.115301 
L 543.606243 335.088081 
L 544.634517 334.325255 
L 545.662791 329.988432 
L 546.691066 335.876781 
L 547.71934 333.040097 
L 548.747614 339.241981 
L 549.775888 332.936708 
L 550.804162 336.148561 
L 551.832436 335.01895 
L 552.86071 336.067656 
L 553.888984 333.835132 
L 554.917259 329.689662 
L 555.945533 335.568133 
L 556.973807 337.88898 
L 558.002081 334.081669 
L 559.030355 339.794753 
L 560.058629 337.525726 
L 561.086903 330.154231 
L 562.115178 339.324401 
L 563.143452 332.628997 
L 564.171726 335.718894 
L 565.2 336.29645 
L 565.2 336.29645 
" clip-path="url(#p01234a2180)" style="fill: none; stroke: #0000ff; stroke-width: 1.5; stroke-linecap: square"/>
   </g>
   <g id="line2d_34">
    <path d="M 83.453567 323.78269 
L 115.587134 340.969307 
L 147.7207 347.936801 
L 179.854267 354.230308 
L 211.987834 357.238371 
L 244.121401 359.389183 
L 276.254967 361.075998 
L 308.388534 363.411318 
L 340.522101 364.329422 
L 372.655668 364.778797 
L 404.789235 365.678436 
L 436.922801 366.545549 
L 469.056368 369.693233 
L 501.189935 368.990494 
L 533.323502 370.096364 
L 565.457069 369.612022 
" clip-path="url(#p01234a2180)" style="fill: none; stroke: #ffa500; stroke-width: 1.5; stroke-linecap: square"/>
   </g>
   <g id="line2d_35">
    <path d="M 179.854267 386.44 
L 179.854267 26.88 
" clip-path="url(#p01234a2180)" style="fill: none; stroke-dasharray: 5.55,2.4; stroke-dashoffset: 0; stroke: #ff0000; stroke-width: 1.5"/>
   </g>
   <g id="line2d_36">
    <path d="M 244.121401 386.44 
L 244.121401 26.88 
" clip-path="url(#p01234a2180)" style="fill: none; stroke-dasharray: 5.55,2.4; stroke-dashoffset: 0; stroke: #ff0000; stroke-width: 1.5"/>
   </g>
   <g id="patch_3">
    <path d="M 51.32 386.44 
L 51.32 26.88 
" style="fill: none; stroke: #000000; stroke-width: 0.8; stroke-linejoin: miter; stroke-linecap: square"/>
   </g>
   <g id="patch_4">
    <path d="M 565.2 386.44 
L 565.2 26.88 
" style="fill: none; stroke: #000000; stroke-width: 0.8; stroke-linejoin: miter; stroke-linecap: square"/>
   </g>
   <g id="patch_5">
    <path d="M 51.32 386.44 
L 565.2 386.44 
" style="fill: none; stroke: #000000; stroke-width: 0.8; stroke-linejoin: miter; stroke-linecap: square"/>
   </g>
   <g id="patch_6">
    <path d="M 51.32 26.88 
L 565.2 26.88 
" style="fill: none; stroke: #000000; stroke-width: 0.8; stroke-linejoin: miter; stroke-linecap: square"/>
   </g>
   <g id="text_19">
    <!-- Training and Evaluation Loss Over Epochs for timm/resnext50_32x4d.a1h_in1k -->
    <g transform="translate(52.710469 20.88) scale(0.13 -0.13)">
     <defs>
      <path id="DejaVuSans-54" d="M -19 4666 
L 3928 4666 
L 3928 4134 
L 2272 4134 
L 2272 0 
L 1638 0 
L 1638 4134 
L -19 4134 
L -19 4666 
z
" transform="scale(0.015625)"/>
      <path id="DejaVuSans-72" d="M 2631 2963 
Q 2534 3019 2420 3045 
Q 2306 3072 2169 3072 
Q 1681 3072 1420 2755 
Q 1159 2438 1159 1844 
L 1159 0 
L 581 0 
L 581 3500 
L 1159 3500 
L 1159 2956 
Q 1341 3275 1631 3429 
Q 1922 3584 2338 3584 
Q 2397 3584 2469 3576 
Q 2541 3569 2628 3553 
L 2631 2963 
z
" transform="scale(0.015625)"/>
      <path id="DejaVuSans-61" d="M 2194 1759 
Q 1497 1759 1228 1600 
Q 959 1441 959 1056 
Q 959 750 1161 570 
Q 1363 391 1709 391 
Q 2188 391 2477 730 
Q 2766 1069 2766 1631 
L 2766 1759 
L 2194 1759 
z
M 3341 1997 
L 3341 0 
L 2766 0 
L 2766 531 
Q 2569 213 2275 61 
Q 1981 -91 1556 -91 
Q 1019 -91 701 211 
Q 384 513 384 1019 
Q 384 1609 779 1909 
Q 1175 2209 1959 2209 
L 2766 2209 
L 2766 2266 
Q 2766 2663 2505 2880 
Q 2244 3097 1772 3097 
Q 1472 3097 1187 3025 
Q 903 2953 641 2809 
L 641 3341 
Q 956 3463 1253 3523 
Q 1550 3584 1831 3584 
Q 2591 3584 2966 3190 
Q 3341 2797 3341 1997 
z
" transform="scale(0.015625)"/>
      <path id="DejaVuSans-69" d="M 603 3500 
L 1178 3500 
L 1178 0 
L 603 0 
L 603 3500 
z
M 603 4863 
L 1178 4863 
L 1178 4134 
L 603 4134 
L 603 4863 
z
" transform="scale(0.015625)"/>
      <path id="DejaVuSans-6e" d="M 3513 2113 
L 3513 0 
L 2938 0 
L 2938 2094 
Q 2938 2591 2744 2837 
Q 2550 3084 2163 3084 
Q 1697 3084 1428 2787 
Q 1159 2491 1159 1978 
L 1159 0 
L 581 0 
L 581 3500 
L 1159 3500 
L 1159 2956 
Q 1366 3272 1645 3428 
Q 1925 3584 2291 3584 
Q 2894 3584 3203 3211 
Q 3513 2838 3513 2113 
z
" transform="scale(0.015625)"/>
      <path id="DejaVuSans-67" d="M 2906 1791 
Q 2906 2416 2648 2759 
Q 2391 3103 1925 3103 
Q 1463 3103 1205 2759 
Q 947 2416 947 1791 
Q 947 1169 1205 825 
Q 1463 481 1925 481 
Q 2391 481 2648 825 
Q 2906 1169 2906 1791 
z
M 3481 434 
Q 3481 -459 3084 -895 
Q 2688 -1331 1869 -1331 
Q 1566 -1331 1297 -1286 
Q 1028 -1241 775 -1147 
L 775 -588 
Q 1028 -725 1275 -790 
Q 1522 -856 1778 -856 
Q 2344 -856 2625 -561 
Q 2906 -266 2906 331 
L 2906 616 
Q 2728 306 2450 153 
Q 2172 0 1784 0 
Q 1141 0 747 490 
Q 353 981 353 1791 
Q 353 2603 747 3093 
Q 1141 3584 1784 3584 
Q 2172 3584 2450 3431 
Q 2728 3278 2906 2969 
L 2906 3500 
L 3481 3500 
L 3481 434 
z
" transform="scale(0.015625)"/>
      <path id="DejaVuSans-20" transform="scale(0.015625)"/>
      <path id="DejaVuSans-64" d="M 2906 2969 
L 2906 4863 
L 3481 4863 
L 3481 0 
L 2906 0 
L 2906 525 
Q 2725 213 2448 61 
Q 2172 -91 1784 -91 
Q 1150 -91 751 415 
Q 353 922 353 1747 
Q 353 2572 751 3078 
Q 1150 3584 1784 3584 
Q 2172 3584 2448 3432 
Q 2725 3281 2906 2969 
z
M 947 1747 
Q 947 1113 1208 752 
Q 1469 391 1925 391 
Q 2381 391 2643 752 
Q 2906 1113 2906 1747 
Q 2906 2381 2643 2742 
Q 2381 3103 1925 3103 
Q 1469 3103 1208 2742 
Q 947 2381 947 1747 
z
" transform="scale(0.015625)"/>
      <path id="DejaVuSans-76" d="M 191 3500 
L 800 3500 
L 1894 563 
L 2988 3500 
L 3597 3500 
L 2284 0 
L 1503 0 
L 191 3500 
z
" transform="scale(0.015625)"/>
      <path id="DejaVuSans-6c" d="M 603 4863 
L 1178 4863 
L 1178 0 
L 603 0 
L 603 4863 
z
" transform="scale(0.015625)"/>
      <path id="DejaVuSans-75" d="M 544 1381 
L 544 3500 
L 1119 3500 
L 1119 1403 
Q 1119 906 1312 657 
Q 1506 409 1894 409 
Q 2359 409 2629 706 
Q 2900 1003 2900 1516 
L 2900 3500 
L 3475 3500 
L 3475 0 
L 2900 0 
L 2900 538 
Q 2691 219 2414 64 
Q 2138 -91 1772 -91 
Q 1169 -91 856 284 
Q 544 659 544 1381 
z
M 1991 3584 
L 1991 3584 
z
" transform="scale(0.015625)"/>
      <path id="DejaVuSans-74" d="M 1172 4494 
L 1172 3500 
L 2356 3500 
L 2356 3053 
L 1172 3053 
L 1172 1153 
Q 1172 725 1289 603 
Q 1406 481 1766 481 
L 2356 481 
L 2356 0 
L 1766 0 
Q 1100 0 847 248 
Q 594 497 594 1153 
L 594 3053 
L 172 3053 
L 172 3500 
L 594 3500 
L 594 4494 
L 1172 4494 
z
" transform="scale(0.015625)"/>
      <path id="DejaVuSans-4f" d="M 2522 4238 
Q 1834 4238 1429 3725 
Q 1025 3213 1025 2328 
Q 1025 1447 1429 934 
Q 1834 422 2522 422 
Q 3209 422 3611 934 
Q 4013 1447 4013 2328 
Q 4013 3213 3611 3725 
Q 3209 4238 2522 4238 
z
M 2522 4750 
Q 3503 4750 4090 4092 
Q 4678 3434 4678 2328 
Q 4678 1225 4090 567 
Q 3503 -91 2522 -91 
Q 1538 -91 948 565 
Q 359 1222 359 2328 
Q 359 3434 948 4092 
Q 1538 4750 2522 4750 
z
" transform="scale(0.015625)"/>
      <path id="DejaVuSans-65" d="M 3597 1894 
L 3597 1613 
L 953 1613 
Q 991 1019 1311 708 
Q 1631 397 2203 397 
Q 2534 397 2845 478 
Q 3156 559 3463 722 
L 3463 178 
Q 3153 47 2828 -22 
Q 2503 -91 2169 -91 
Q 1331 -91 842 396 
Q 353 884 353 1716 
Q 353 2575 817 3079 
Q 1281 3584 2069 3584 
Q 2775 3584 3186 3129 
Q 3597 2675 3597 1894 
z
M 3022 2063 
Q 3016 2534 2758 2815 
Q 2500 3097 2075 3097 
Q 1594 3097 1305 2825 
Q 1016 2553 972 2059 
L 3022 2063 
z
" transform="scale(0.015625)"/>
      <path id="DejaVuSans-66" d="M 2375 4863 
L 2375 4384 
L 1825 4384 
Q 1516 4384 1395 4259 
Q 1275 4134 1275 3809 
L 1275 3500 
L 2222 3500 
L 2222 3053 
L 1275 3053 
L 1275 0 
L 697 0 
L 697 3053 
L 147 3053 
L 147 3500 
L 697 3500 
L 697 3744 
Q 697 4328 969 4595 
Q 1241 4863 1831 4863 
L 2375 4863 
z
" transform="scale(0.015625)"/>
      <path id="DejaVuSans-6d" d="M 3328 2828 
Q 3544 3216 3844 3400 
Q 4144 3584 4550 3584 
Q 5097 3584 5394 3201 
Q 5691 2819 5691 2113 
L 5691 0 
L 5113 0 
L 5113 2094 
Q 5113 2597 4934 2840 
Q 4756 3084 4391 3084 
Q 3944 3084 3684 2787 
Q 3425 2491 3425 1978 
L 3425 0 
L 2847 0 
L 2847 2094 
Q 2847 2600 2669 2842 
Q 2491 3084 2119 3084 
Q 1678 3084 1418 2786 
Q 1159 2488 1159 1978 
L 1159 0 
L 581 0 
L 581 3500 
L 1159 3500 
L 1159 2956 
Q 1356 3278 1631 3431 
Q 1906 3584 2284 3584 
Q 2666 3584 2933 3390 
Q 3200 3197 3328 2828 
z
" transform="scale(0.015625)"/>
      <path id="DejaVuSans-2f" d="M 1625 4666 
L 2156 4666 
L 531 -594 
L 0 -594 
L 1625 4666 
z
" transform="scale(0.015625)"/>
      <path id="DejaVuSans-78" d="M 3513 3500 
L 2247 1797 
L 3578 0 
L 2900 0 
L 1881 1375 
L 863 0 
L 184 0 
L 1544 1831 
L 300 3500 
L 978 3500 
L 1906 2253 
L 2834 3500 
L 3513 3500 
z
" transform="scale(0.015625)"/>
      <path id="DejaVuSans-5f" d="M 3263 -1063 
L 3263 -1509 
L -63 -1509 
L -63 -1063 
L 3263 -1063 
z
" transform="scale(0.015625)"/>
      <path id="DejaVuSans-6b" d="M 581 4863 
L 1159 4863 
L 1159 1991 
L 2875 3500 
L 3609 3500 
L 1753 1863 
L 3688 0 
L 2938 0 
L 1159 1709 
L 1159 0 
L 581 0 
L 581 4863 
z
" transform="scale(0.015625)"/>
     </defs>
     <use xlink:href="#DejaVuSans-54"/>
     <use xlink:href="#DejaVuSans-72" transform="translate(46.333984 0)"/>
     <use xlink:href="#DejaVuSans-61" transform="translate(87.447266 0)"/>
     <use xlink:href="#DejaVuSans-69" transform="translate(148.726562 0)"/>
     <use xlink:href="#DejaVuSans-6e" transform="translate(176.509766 0)"/>
     <use xlink:href="#DejaVuSans-69" transform="translate(239.888672 0)"/>
     <use xlink:href="#DejaVuSans-6e" transform="translate(267.671875 0)"/>
     <use xlink:href="#DejaVuSans-67" transform="translate(331.050781 0)"/>
     <use xlink:href="#DejaVuSans-20" transform="translate(394.527344 0)"/>
     <use xlink:href="#DejaVuSans-61" transform="translate(426.314453 0)"/>
     <use xlink:href="#DejaVuSans-6e" transform="translate(487.59375 0)"/>
     <use xlink:href="#DejaVuSans-64" transform="translate(550.972656 0)"/>
     <use xlink:href="#DejaVuSans-20" transform="translate(614.449219 0)"/>
     <use xlink:href="#DejaVuSans-45" transform="translate(646.236328 0)"/>
     <use xlink:href="#DejaVuSans-76" transform="translate(709.419922 0)"/>
     <use xlink:href="#DejaVuSans-61" transform="translate(768.599609 0)"/>
     <use xlink:href="#DejaVuSans-6c" transform="translate(829.878906 0)"/>
     <use xlink:href="#DejaVuSans-75" transform="translate(857.662109 0)"/>
     <use xlink:href="#DejaVuSans-61" transform="translate(921.041016 0)"/>
     <use xlink:href="#DejaVuSans-74" transform="translate(982.320312 0)"/>
     <use xlink:href="#DejaVuSans-69" transform="translate(1021.529297 0)"/>
     <use xlink:href="#DejaVuSans-6f" transform="translate(1049.3125 0)"/>
     <use xlink:href="#DejaVuSans-6e" transform="translate(1110.494141 0)"/>
     <use xlink:href="#DejaVuSans-20" transform="translate(1173.873047 0)"/>
     <use xlink:href="#DejaVuSans-4c" transform="translate(1205.660156 0)"/>
     <use xlink:href="#DejaVuSans-6f" transform="translate(1259.623047 0)"/>
     <use xlink:href="#DejaVuSans-73" transform="translate(1320.804688 0)"/>
     <use xlink:href="#DejaVuSans-73" transform="translate(1372.904297 0)"/>
     <use xlink:href="#DejaVuSans-20" transform="translate(1425.003906 0)"/>
     <use xlink:href="#DejaVuSans-4f" transform="translate(1456.791016 0)"/>
     <use xlink:href="#DejaVuSans-76" transform="translate(1535.501953 0)"/>
     <use xlink:href="#DejaVuSans-65" transform="translate(1594.681641 0)"/>
     <use xlink:href="#DejaVuSans-72" transform="translate(1656.205078 0)"/>
     <use xlink:href="#DejaVuSans-20" transform="translate(1697.318359 0)"/>
     <use xlink:href="#DejaVuSans-45" transform="translate(1729.105469 0)"/>
     <use xlink:href="#DejaVuSans-70" transform="translate(1792.289062 0)"/>
     <use xlink:href="#DejaVuSans-6f" transform="translate(1855.765625 0)"/>
     <use xlink:href="#DejaVuSans-63" transform="translate(1916.947266 0)"/>
     <use xlink:href="#DejaVuSans-68" transform="translate(1971.927734 0)"/>
     <use xlink:href="#DejaVuSans-73" transform="translate(2035.306641 0)"/>
     <use xlink:href="#DejaVuSans-20" transform="translate(2087.40625 0)"/>
     <use xlink:href="#DejaVuSans-66" transform="translate(2119.193359 0)"/>
     <use xlink:href="#DejaVuSans-6f" transform="translate(2154.398438 0)"/>
     <use xlink:href="#DejaVuSans-72" transform="translate(2215.580078 0)"/>
     <use xlink:href="#DejaVuSans-20" transform="translate(2256.693359 0)"/>
     <use xlink:href="#DejaVuSans-74" transform="translate(2288.480469 0)"/>
     <use xlink:href="#DejaVuSans-69" transform="translate(2327.689453 0)"/>
     <use xlink:href="#DejaVuSans-6d" transform="translate(2355.472656 0)"/>
     <use xlink:href="#DejaVuSans-6d" transform="translate(2452.884766 0)"/>
     <use xlink:href="#DejaVuSans-2f" transform="translate(2550.296875 0)"/>
     <use xlink:href="#DejaVuSans-72" transform="translate(2583.988281 0)"/>
     <use xlink:href="#DejaVuSans-65" transform="translate(2622.851562 0)"/>
     <use xlink:href="#DejaVuSans-73" transform="translate(2684.375 0)"/>
     <use xlink:href="#DejaVuSans-6e" transform="translate(2736.474609 0)"/>
     <use xlink:href="#DejaVuSans-65" transform="translate(2799.853516 0)"/>
     <use xlink:href="#DejaVuSans-78" transform="translate(2859.626953 0)"/>
     <use xlink:href="#DejaVuSans-74" transform="translate(2918.806641 0)"/>
     <use xlink:href="#DejaVuSans-35" transform="translate(2958.015625 0)"/>
     <use xlink:href="#DejaVuSans-30" transform="translate(3021.638672 0)"/>
     <use xlink:href="#DejaVuSans-5f" transform="translate(3085.261719 0)"/>
     <use xlink:href="#DejaVuSans-33" transform="translate(3135.261719 0)"/>
     <use xlink:href="#DejaVuSans-32" transform="translate(3198.884766 0)"/>
     <use xlink:href="#DejaVuSans-78" transform="translate(3262.507812 0)"/>
     <use xlink:href="#DejaVuSans-34" transform="translate(3321.6875 0)"/>
     <use xlink:href="#DejaVuSans-64" transform="translate(3385.310547 0)"/>
     <use xlink:href="#DejaVuSans-2e" transform="translate(3448.787109 0)"/>
     <use xlink:href="#DejaVuSans-61" transform="translate(3480.574219 0)"/>
     <use xlink:href="#DejaVuSans-31" transform="translate(3541.853516 0)"/>
     <use xlink:href="#DejaVuSans-68" transform="translate(3605.476562 0)"/>
     <use xlink:href="#DejaVuSans-5f" transform="translate(3668.855469 0)"/>
     <use xlink:href="#DejaVuSans-69" transform="translate(3718.855469 0)"/>
     <use xlink:href="#DejaVuSans-6e" transform="translate(3746.638672 0)"/>
     <use xlink:href="#DejaVuSans-31" transform="translate(3810.017578 0)"/>
     <use xlink:href="#DejaVuSans-6b" transform="translate(3873.640625 0)"/>
    </g>
   </g>
   <g id="legend_1">
    <g id="patch_7">
     <path d="M 409.11375 89.32125 
L 556.8 89.32125 
Q 559.2 89.32125 559.2 86.92125 
L 559.2 35.28 
Q 559.2 32.88 556.8 32.88 
L 409.11375 32.88 
Q 406.71375 32.88 406.71375 35.28 
L 406.71375 86.92125 
Q 406.71375 89.32125 409.11375 89.32125 
z
" style="fill: #ffffff; opacity: 0.8; stroke: #cccccc; stroke-linejoin: miter"/>
    </g>
    <g id="line2d_37">
     <path d="M 411.51375 42.598125 
L 423.51375 42.598125 
L 435.51375 42.598125 
" style="fill: none; stroke: #0000ff; stroke-width: 1.5; stroke-linecap: square"/>
    </g>
    <g id="text_20">
     <!-- Training Loss -->
     <g transform="translate(445.11375 46.798125) scale(0.12 -0.12)">
      <use xlink:href="#DejaVuSans-54"/>
      <use xlink:href="#DejaVuSans-72" transform="translate(46.333984 0)"/>
      <use xlink:href="#DejaVuSans-61" transform="translate(87.447266 0)"/>
      <use xlink:href="#DejaVuSans-69" transform="translate(148.726562 0)"/>
      <use xlink:href="#DejaVuSans-6e" transform="translate(176.509766 0)"/>
      <use xlink:href="#DejaVuSans-69" transform="translate(239.888672 0)"/>
      <use xlink:href="#DejaVuSans-6e" transform="translate(267.671875 0)"/>
      <use xlink:href="#DejaVuSans-67" transform="translate(331.050781 0)"/>
      <use xlink:href="#DejaVuSans-20" transform="translate(394.527344 0)"/>
      <use xlink:href="#DejaVuSans-4c" transform="translate(426.314453 0)"/>
      <use xlink:href="#DejaVuSans-6f" transform="translate(480.277344 0)"/>
      <use xlink:href="#DejaVuSans-73" transform="translate(541.458984 0)"/>
      <use xlink:href="#DejaVuSans-73" transform="translate(593.558594 0)"/>
     </g>
    </g>
    <g id="line2d_38">
     <path d="M 411.51375 60.211875 
L 423.51375 60.211875 
L 435.51375 60.211875 
" style="fill: none; stroke: #ffa500; stroke-width: 1.5; stroke-linecap: square"/>
    </g>
    <g id="text_21">
     <!-- Evaluation Loss -->
     <g transform="translate(445.11375 64.411875) scale(0.12 -0.12)">
      <use xlink:href="#DejaVuSans-45"/>
      <use xlink:href="#DejaVuSans-76" transform="translate(63.183594 0)"/>
      <use xlink:href="#DejaVuSans-61" transform="translate(122.363281 0)"/>
      <use xlink:href="#DejaVuSans-6c" transform="translate(183.642578 0)"/>
      <use xlink:href="#DejaVuSans-75" transform="translate(211.425781 0)"/>
      <use xlink:href="#DejaVuSans-61" transform="translate(274.804688 0)"/>
      <use xlink:href="#DejaVuSans-74" transform="translate(336.083984 0)"/>
      <use xlink:href="#DejaVuSans-69" transform="translate(375.292969 0)"/>
      <use xlink:href="#DejaVuSans-6f" transform="translate(403.076172 0)"/>
      <use xlink:href="#DejaVuSans-6e" transform="translate(464.257812 0)"/>
      <use xlink:href="#DejaVuSans-20" transform="translate(527.636719 0)"/>
      <use xlink:href="#DejaVuSans-4c" transform="translate(559.423828 0)"/>
      <use xlink:href="#DejaVuSans-6f" transform="translate(613.386719 0)"/>
      <use xlink:href="#DejaVuSans-73" transform="translate(674.568359 0)"/>
      <use xlink:href="#DejaVuSans-73" transform="translate(726.667969 0)"/>
     </g>
    </g>
    <g id="line2d_39">
     <path d="M 411.51375 77.825625 
L 423.51375 77.825625 
L 435.51375 77.825625 
" style="fill: none; stroke-dasharray: 5.55,2.4; stroke-dashoffset: 0; stroke: #ff0000; stroke-width: 1.5"/>
    </g>
    <g id="text_22">
     <!-- Training Restarted -->
     <g transform="translate(445.11375 82.025625) scale(0.12 -0.12)">
      <defs>
       <path id="DejaVuSans-52" d="M 2841 2188 
Q 3044 2119 3236 1894 
Q 3428 1669 3622 1275 
L 4263 0 
L 3584 0 
L 2988 1197 
Q 2756 1666 2539 1819 
Q 2322 1972 1947 1972 
L 1259 1972 
L 1259 0 
L 628 0 
L 628 4666 
L 2053 4666 
Q 2853 4666 3247 4331 
Q 3641 3997 3641 3322 
Q 3641 2881 3436 2590 
Q 3231 2300 2841 2188 
z
M 1259 4147 
L 1259 2491 
L 2053 2491 
Q 2509 2491 2742 2702 
Q 2975 2913 2975 3322 
Q 2975 3731 2742 3939 
Q 2509 4147 2053 4147 
L 1259 4147 
z
" transform="scale(0.015625)"/>
      </defs>
      <use xlink:href="#DejaVuSans-54"/>
      <use xlink:href="#DejaVuSans-72" transform="translate(46.333984 0)"/>
      <use xlink:href="#DejaVuSans-61" transform="translate(87.447266 0)"/>
      <use xlink:href="#DejaVuSans-69" transform="translate(148.726562 0)"/>
      <use xlink:href="#DejaVuSans-6e" transform="translate(176.509766 0)"/>
      <use xlink:href="#DejaVuSans-69" transform="translate(239.888672 0)"/>
      <use xlink:href="#DejaVuSans-6e" transform="translate(267.671875 0)"/>
      <use xlink:href="#DejaVuSans-67" transform="translate(331.050781 0)"/>
      <use xlink:href="#DejaVuSans-20" transform="translate(394.527344 0)"/>
      <use xlink:href="#DejaVuSans-52" transform="translate(426.314453 0)"/>
      <use xlink:href="#DejaVuSans-65" transform="translate(491.296875 0)"/>
      <use xlink:href="#DejaVuSans-73" transform="translate(552.820312 0)"/>
      <use xlink:href="#DejaVuSans-74" transform="translate(604.919922 0)"/>
      <use xlink:href="#DejaVuSans-61" transform="translate(644.128906 0)"/>
      <use xlink:href="#DejaVuSans-72" transform="translate(705.408203 0)"/>
      <use xlink:href="#DejaVuSans-74" transform="translate(746.521484 0)"/>
      <use xlink:href="#DejaVuSans-65" transform="translate(785.730469 0)"/>
      <use xlink:href="#DejaVuSans-64" transform="translate(847.253906 0)"/>
     </g>
    </g>
   </g>
  </g>
 </g>
 <defs>
  <clipPath id="p01234a2180">
   <rect x="51.32" y="26.88" width="513.88" height="359.56"/>
  </clipPath>
 </defs>
</svg>
